<?xml version="1.0" encoding="UTF-8"?>
<svg width="160px" height="160px" viewBox="0 0 160 160" version="1.1" xmlns="http://www.w3.org/2000/svg" xmlns:xlink="http://www.w3.org/1999/xlink">
    <!-- Generator: Sketch 55.2 (78181) - https://sketchapp.com -->
    <title>编组</title>
    <desc>Created with Sketch.</desc>
    <g id="Logo_Practice" stroke="none" stroke-width="1" fill="none" fill-rule="evenodd">
        <g id="A4" transform="translate(-119.000000, -128.000000)">
            <g id="编组" transform="translate(119.000000, 128.000000)">
                <rect id="矩形" fill="#FFFFFF" x="0" y="0" width="160" height="160"></rect>
                <rect id="矩形" stroke="#000000" stroke-width="3" fill="#FFFFFF" x="7.5" y="7.5" width="144" height="144"></rect>
                <g id="火烈鸟羽翼-黑" transform="translate(38.000000, 23.000000)" fill="#000000" stroke="#FFFFFF" stroke-width="2">
                    <path d="M35.6261219,52.0762066 C35.5120883,53.4220721 35.7871445,54.4115105 36.4512907,55.0445219 C37.4475099,55.9940391 38.7559996,55.9564053 39.2111264,55.9433153 C39.6662533,55.9302253 42.1727235,55.7430574 43.7980147,56.5594029 C44.8815421,57.1036333 45.7537426,57.7498406 46.4146162,58.4980249 C47.4730545,59.9252474 48.2249283,60.8050731 48.6702377,61.1375018 C49.3382017,61.6361448 51.4071659,62.8425054 54.0777637,62.8807746 C56.7483616,62.9190437 63.1430451,61.9295735 67.9598888,58.4537507 C72.7767324,54.977928 76.6742607,47.846025 77.1134029,46.39491 C77.5525452,44.943795 78.5298851,42.5565706 77.3113891,39.4269497 C76.0928931,36.2973287 73.3039828,34.421202 71.0140001,32.9910405 C68.7240174,31.5608791 63.9893641,30.14349 61.258603,30.2220299 C58.5278418,30.3005699 51.9186848,30.8358936 47.4042942,33.6700842 C42.8899035,36.5042748 38.1553749,43.084857 37.1031454,46.1071686 C36.401659,48.122043 35.9093178,50.1117223 35.6261219,52.0762066 Z" id="路径-2" transform="translate(56.751140, 46.550372) rotate(51.000000) translate(-56.751140, -46.550372) "></path>
                    <path d="M26.1367315,59.9434539 C26.0795284,61.3131265 26.3894937,62.3352349 27.0666272,63.0097791 C28.0823276,64.0215954 29.3642378,64.0384615 29.8101196,64.044328 C30.2560014,64.0501945 32.7068848,63.9649758 34.334206,64.8673741 C35.4190869,65.4689731 36.3008274,66.1657868 36.9794276,66.9578153 C38.0755525,68.4601273 38.8487558,69.3904431 39.2990374,69.7487625 C39.97446,70.2862416 42.0527962,71.6057016 44.6738185,71.7576515 C47.2948407,71.9096013 53.5269198,71.1693417 58.1104116,67.8231611 C62.6939035,64.4769805 66.2272294,57.3581021 66.5990432,55.8946813 C66.970857,54.4312604 67.832555,52.0345648 66.5103127,48.7868799 C65.1880704,45.539195 62.3763765,43.5052961 60.0721661,41.9479342 C57.7679558,40.3905724 53.0663973,38.7429361 50.3911064,38.7077372 C47.7158156,38.6725384 41.2549291,38.9399275 36.942047,41.6436109 C32.6291649,44.3472942 28.2524775,50.8677514 27.3431107,53.9098775 C26.7368663,55.9379615 26.3347398,57.9491537 26.1367315,59.9434539 Z" id="路径-2" transform="translate(46.674945, 55.240554) rotate(103.000000) translate(-46.674945, -55.240554) "></path>
                    <path d="M11.7968445,57.4547626 C11.7499109,58.764543 12.083525,59.7458587 12.7976869,60.3987097 C13.8689297,61.3779863 15.209106,61.4083046 15.6752542,61.4188501 C16.1414025,61.4293956 18.7025817,61.3749783 20.412142,62.2563373 C21.5518489,62.84391 22.4801014,63.5203306 23.1968997,64.2855992 C24.3568188,65.7350397 25.173807,66.633659 25.6478644,66.9814572 C26.3589506,67.5031544 28.5438865,68.7885203 31.285144,68.9628927 C34.0264015,69.1372651 40.5340227,68.4979793 45.2938562,65.3472802 C50.0536896,62.196581 53.6803255,55.424793 54.0552505,54.028801 C54.4301755,52.6328091 55.3084264,50.3493404 53.8957498,47.2275396 C52.4830731,44.1057389 49.524828,42.1287312 47.1015452,40.6132574 C44.6782624,39.0977837 39.7481144,37.469419 36.9512248,37.406146 C34.1543351,37.342873 27.4030942,37.5272158 22.9201033,40.0662094 C18.4371125,42.605203 13.9232668,48.7951305 13.0012475,51.6955774 C12.3865679,53.6292087 11.9851003,55.5489371 11.7968445,57.4547626 Z" id="路径-2" transform="translate(33.231561, 53.192865) rotate(154.000000) translate(-33.231561, -53.192865) "></path>
                    <path d="M4.96766957,47.3561246 C4.85922047,48.6694202 5.14713739,49.6366752 5.83142035,50.2578897 C6.85784477,51.1897114 8.19802107,51.1593931 8.66416934,51.1488476 C9.13031762,51.1383021 11.6967695,50.9678843 13.3667842,51.7727884 C14.4801273,52.3093912 15.3776222,52.9445086 16.0592687,53.6781406 C17.1523997,55.0766112 17.9280847,55.9392 18.3863238,56.2659072 C19.0736826,56.7559679 21.2006182,57.9437879 23.9366029,57.9942506 C26.6725877,58.0447133 33.2171182,57.1101534 38.1298615,53.7406351 C43.0426048,50.3711167 46.9908784,43.4279643 47.4317129,42.0135177 C47.8725473,40.5990711 48.8588896,38.2734204 47.5912136,35.2122563 C46.3235377,32.1510921 43.4549293,30.3059033 41.1001923,28.8985209 C38.7454553,27.4911386 33.8864894,26.0842295 31.0895998,26.1475025 C28.2927101,26.2107756 21.525651,26.700938 16.9187504,29.4455689 C12.3118499,32.1901999 7.50273009,38.5910374 6.44361922,41.5363027 C5.73754532,43.499813 5.2455621,45.4397536 4.96766957,47.3561246 Z" id="路径-2" transform="translate(26.580003, 42.070806) rotate(206.000000) translate(-26.580003, -42.070806) "></path>
                    <path d="M11.0058235,35.4292516 C10.9143995,36.8008797 11.1989429,37.8151662 11.8594538,38.472111 C12.8502202,39.4575281 14.1321285,39.440662 14.5780097,39.4347955 C15.0238909,39.4289291 17.4777039,39.2791791 19.0830236,40.1390456 C20.1532366,40.7122898 21.0178653,41.3861265 21.6769096,42.1605556 C22.7358786,43.634513 23.4861038,44.544785 23.9275851,44.8913715 C24.5898071,45.4112512 26.6358747,46.6764463 29.2539599,46.7594651 C31.8720452,46.8424838 38.1246479,45.937963 42.793197,42.470053 C47.4617461,39.0021431 51.1739944,31.7879344 51.5824731,30.3142473 C51.9909519,28.8405601 52.9127799,26.4203986 51.6712036,23.2064459 C50.4296272,19.9924932 47.6678024,18.0319252 45.4017274,16.5346948 C43.1356525,15.0374643 38.4736995,13.5130239 35.7984125,13.5482228 C33.1231254,13.5834216 26.6534486,14.0209385 22.2716416,16.8390181 C17.8898347,19.6570977 13.3488923,26.2948844 12.3632628,29.361943 C11.7061764,31.4066487 11.2536966,33.4290849 11.0058235,35.4292516 Z" id="路径-2" transform="translate(31.642805, 30.156106) rotate(257.000000) translate(-31.642805, -30.156106) "></path>
                    <path d="M23.8213499,30.7231469 C23.7836746,32.064649 24.1154542,33.0715408 24.8166887,33.7438222 C25.8685403,34.7522444 27.1770301,34.7898781 27.6321569,34.8029681 C28.0872838,34.8160581 30.587209,34.7728802 32.2615876,35.6841282 C33.3778401,36.2916268 34.2882197,36.9891033 34.9927267,37.7765576 C36.1340683,39.2670485 36.9372112,40.1915983 37.4021556,40.5502069 C38.0995721,41.08812 40.2405314,42.4155631 42.9176742,42.6076397 C45.594817,42.7997164 51.9436855,42.1767661 56.5707242,38.9725608 C61.1977629,35.7683555 64.6960462,28.8491649 65.053376,27.4209575 C65.4107057,25.99275 66.2538732,23.6578856 64.8553897,20.4529971 C63.4569063,17.2481087 60.5567309,15.208357 58.1816633,13.644023 C55.8065956,12.0796891 50.9835848,10.38741 48.2528236,10.30887 C45.5220625,10.2303301 38.9325405,10.3860438 34.5719573,12.9649794 C30.2113742,15.543915 25.8433655,21.8626973 24.9613059,24.8293764 C24.3732662,26.8071625 23.9932809,28.7717526 23.8213499,30.7231469 Z" id="路径-2" transform="translate(44.725874, 26.466756) rotate(309.000000) translate(-44.725874, -26.466756) "></path>
                    <path d="M34.0150343,38.3757163 C33.936311,39.6694683 34.2512041,40.6305412 34.9597133,41.258935 C36.0224772,42.2015258 37.3804533,42.2015258 37.8527928,42.2015258 C38.3251324,42.2015258 40.9229997,42.0906327 42.6352304,42.9223305 C43.7767176,43.4767956 44.7017158,44.1236716 45.4102251,44.8629584 C46.5517122,46.2676035 47.3586256,47.1362655 47.8309651,47.4689446 C48.5394743,47.9679632 50.7240446,49.1877865 53.4990392,49.2986796 C56.2740339,49.4095726 62.8867871,48.6333214 67.7873095,45.4174236 C72.687832,42.2015258 76.5255905,35.4370511 76.9388876,34.0508882 C77.3521847,32.6647253 78.2968637,30.3914183 76.9388876,27.34186 C75.5809115,24.2923017 72.6287895,22.4071202 70.2080495,20.9655109 C67.7873095,19.5239015 62.8277446,18.0268456 59.9937075,18.0268456 C57.1596705,18.0268456 50.3107475,18.3595247 45.7054373,20.9655109 C41.100127,23.571497 36.3767319,29.7815066 35.3730104,32.6647253 C34.7038628,34.5868712 34.2512041,36.4905348 34.0150343,38.3757163 Z" id="路径-2"></path>
                </g>
                <path d="M54,118 L60.8735835,118 L60.8735835,119.40056 L55.5615714,119.40056 L55.5615714,122.173669 L60.5532611,122.173669 L60.5532611,123.57423 L55.5615714,123.57423 L55.5615714,126.59944 L61.1004785,126.59944 L61.1004785,128 L54,128 L54,118 Z M61.7010829,118 L63.5829766,118 L66.2523294,122.495798 L68.9083354,118 L70.7902292,118 L67.0264417,124.022409 L67.0264417,128 L65.4648703,128 L65.4648703,124.022409 L61.7010829,118 Z M71.7912365,118 L78.6648199,118 L78.6648199,119.40056 L73.3528079,119.40056 L73.3528079,122.173669 L78.3444976,122.173669 L78.3444976,123.57423 L73.3528079,123.57423 L73.3528079,126.59944 L78.8917149,126.59944 L78.8917149,128 L71.7912365,128 L71.7912365,118 Z M80.359859,118 L81.9080836,118 L81.9080836,126.59944 L87.0599345,126.59944 L87.0599345,128 L80.359859,128 L80.359859,118 Z M88.2611433,118 L89.8227147,118 L89.8227147,128 L88.2611433,128 L88.2611433,118 Z M90.9571896,118 L98.7650466,118 L98.7650466,119.40056 L95.6419038,119.40056 L95.6419038,128 L94.0803324,128 L94.0803324,119.40056 L90.9571896,119.40056 L90.9571896,118 Z M99.8995215,118 L106.773105,118 L106.773105,119.40056 L101.461093,119.40056 L101.461093,122.173669 L106.452783,122.173669 L106.452783,123.57423 L101.461093,123.57423 L101.461093,126.59944 L107,126.59944 L107,128 L99.8995215,128 L99.8995215,118 Z" id="EYELITE" fill="#000000" fill-rule="nonzero"></path>
            </g>
        </g>
    </g>
</svg>