<?xml version="1.0" encoding="UTF-8"?>
<svg width="384px" height="370px" viewBox="0 0 384 370" version="1.1" xmlns="http://www.w3.org/2000/svg" xmlns:xlink="http://www.w3.org/1999/xlink">
    <!-- Generator: Sketch 55.2 (78181) - https://sketchapp.com -->
    <title>火烈鸟羽翼-黑</title>
    <desc>Created with Sketch.</desc>
    <g id="Logo_Design" stroke="none" stroke-width="1" fill="none" fill-rule="evenodd">
        <g id="LOGO_Design" transform="translate(-2579.000000, -422.000000)" fill="#000000" stroke="#FFFFFF" stroke-width="5">
            <g id="火烈鸟羽翼-黑" transform="translate(2558.000000, 390.000000)">
                <path d="M183.931683,272.099602 C183.37614,279.10069 184.839991,284.258166 188.323237,287.572029 C193.548105,292.542824 200.373172,292.385221 202.747109,292.330402 C205.121045,292.275584 218.1914,291.374773 226.694136,295.670882 C232.362626,298.534955 236.931641,301.923578 240.401182,305.836752 C245.964604,313.295536 249.912726,317.896483 252.245549,319.639595 C255.744783,322.254264 266.573489,328.59314 280.506661,328.870392 C294.439833,329.147645 327.770876,324.185017 352.7979,306.236283 C377.824924,288.287549 397.949138,251.284233 400.197639,243.74489 C402.446141,236.205548 407.474958,223.810053 401.026767,207.486628 C394.578576,191.163202 379.974451,181.317545 367.986186,173.807457 C355.997921,166.29737 331.2566,158.782276 317.012981,159.111186 C302.769362,159.440096 268.30617,162.032893 244.838231,176.651159 C221.370293,191.269426 196.863471,225.378976 191.462537,241.077528 C187.861914,251.54323 185.351629,261.883921 183.931683,272.099602 Z" id="路径-2" transform="translate(294.005463, 243.991012) rotate(51.000000) translate(-294.005463, -243.991012) "></path>
                <path d="M134.209215,314.139353 C133.891668,321.240141 135.501709,326.534432 139.039339,330.022226 C144.345785,335.253917 151.059535,335.324549 153.394752,335.349117 C155.729969,335.373685 168.567523,334.899817 177.07875,339.556299 C182.752901,342.66062 187.361863,346.261173 190.905635,350.357957 C196.626875,358.131201 200.664316,362.943592 203.017959,364.795129 C206.548424,367.572435 217.416365,374.384949 231.141909,375.138274 C244.867453,375.891599 277.517502,371.972617 301.567266,354.566799 C325.617031,337.160981 344.216015,300.212209 346.182557,292.621332 C348.149098,285.030455 352.693623,272.595297 345.810971,255.777442 C338.928319,238.959588 324.228798,228.453212 312.180964,220.410434 C300.13313,212.367656 275.530432,203.888332 261.519128,203.740926 C247.507824,203.59352 213.665598,205.064259 191.041564,219.135987 C168.41753,233.207716 145.409304,267.065474 140.606657,282.847005 C137.404892,293.368026 135.272411,303.798809 134.209215,314.139353 Z" id="路径-2" transform="translate(241.825731, 289.478459) rotate(103.000000) translate(-241.825731, -289.478459) "></path>
                <path d="M60.8229292,301.579481 C60.5483879,308.429452 62.257468,313.552911 65.9501696,316.949859 C71.4892219,322.04528 78.4469864,322.172247 80.8670784,322.216409 C83.2871705,322.260572 96.5866359,321.915694 105.442274,326.484068 C111.346033,329.52965 116.149783,333.044801 119.853526,337.029519 C125.841929,344.581348 130.062738,349.261 132.515952,351.068476 C136.195773,353.77969 147.510145,360.449426 161.739226,361.296652 C175.968308,362.143878 209.772311,358.647754 234.560588,342.060574 C259.348864,325.473394 278.338634,289.978169 280.318206,282.669671 C282.297779,275.361173 286.91163,263.400187 279.650248,247.109511 C272.388867,230.818835 257.075601,220.550708 244.529101,212.683349 C231.982602,204.81599 206.422587,196.417372 191.902035,196.152397 C177.381483,195.887422 142.323271,197.01038 118.986828,210.392419 C95.6503858,223.774459 72.0677407,256.248023 67.2121015,271.43623 C63.9750087,281.561701 61.8452846,291.609452 60.8229292,301.579481 Z" id="路径-2" transform="translate(172.193842, 278.767133) rotate(154.000000) translate(-172.193842, -278.767133) "></path>
                <path d="M25.5796578,247.539156 C25.0475018,254.403848 26.565211,259.468423 30.1327855,262.732883 C35.4841472,267.629573 42.4419117,267.502606 44.8620037,267.458443 C47.2820957,267.414281 60.6036424,266.583616 69.2936713,270.831811 C75.0870238,273.663941 79.761967,277.006122 83.3185009,280.858353 C89.0272086,288.196729 93.0750476,292.725493 95.4620177,294.444644 C99.0424729,297.023371 110.113952,303.284603 124.320952,303.612919 C138.527951,303.941236 172.486524,299.208562 197.915157,281.70501 C223.34379,264.201459 243.680515,227.988593 245.936104,220.60281 C248.191692,213.217027 253.258209,201.079392 246.604062,185.04265 C239.949914,169.005908 225.01203,159.289813 212.752587,151.87512 C200.493143,144.460427 175.231225,136.989221 160.710673,137.254196 C146.190121,137.519171 111.065665,139.922841 87.2103134,154.16605 C63.3549616,168.409258 38.5357664,201.766073 33.1060146,217.14197 C29.48618,227.392568 26.9773944,237.524964 25.5796578,247.539156 Z" id="路径-2" transform="translate(137.694353, 220.437995) rotate(206.000000) translate(-137.694353, -220.437995) "></path>
                <path d="M55.9133631,185.066625 C55.4525046,192.175602 56.9560862,197.437136 60.4241081,200.851227 C65.6261409,205.972364 72.3398907,205.901732 74.6751081,205.877165 C77.0103254,205.852597 89.8601627,205.108485 98.2792612,209.586852 C103.891994,212.572429 108.4293,216.076759 111.89118,220.09984 C117.456824,227.75434 121.398042,232.482792 123.714834,234.285194 C127.190021,236.988797 137.92284,243.57406 151.6361,244.038715 C165.34936,244.50337 198.085396,239.896494 222.491392,221.980897 C246.897387,204.065301 266.245685,166.717305 268.365774,159.083434 C270.485863,151.449564 275.282207,138.916135 268.737359,122.239545 C262.192512,105.562954 247.701816,95.3636739 235.813672,87.5727143 C223.925528,79.7817547 199.488662,71.8183513 185.477358,71.9657572 C171.466054,72.113163 137.586976,74.2963636 114.674272,88.8471609 C91.7615684,103.397958 68.0654479,137.747069 62.9434214,153.633013 C59.528737,164.223642 57.1853843,174.701513 55.9133631,185.066625 Z" id="路径-2" transform="translate(163.943618, 158.016818) rotate(257.000000) translate(-163.943618, -158.016818) "></path>
                <path d="M122.524052,161.494404 C122.288283,168.477219 123.989681,173.707785 127.628245,177.186104 C133.086091,182.403581 139.911158,182.561184 142.285094,182.616002 C144.659031,182.67082 157.701977,182.373011 166.410281,187.066554 C172.215817,190.195582 176.94472,193.79891 180.596988,197.876538 C186.507593,205.600278 190.67042,210.388522 193.085471,212.24127 C196.708046,215.020393 207.838253,221.86634 221.798834,222.787708 C235.759415,223.709075 268.898594,220.281362 293.130752,203.470108 C317.36291,186.658855 335.815164,150.546337 337.721051,143.102927 C339.626938,135.659516 344.093867,123.483295 336.891923,106.844664 C329.68998,90.2060334 314.619899,79.6751466 302.275315,71.603171 C289.930731,63.5311954 264.819386,54.8649161 250.575767,54.536006 C236.332148,54.2070959 201.951183,55.2101602 179.12736,68.7594691 C156.303537,82.308778 133.331629,115.321961 128.643333,130.787535 C125.517803,141.097918 123.478043,151.333541 122.524052,161.494404 Z" id="路径-2" transform="translate(231.674528, 138.706284) rotate(309.000000) translate(-231.674528, -138.706284) "></path>
                <path d="M176.06115,201.682043 C175.653482,208.464734 177.284157,213.503305 180.953176,216.797755 C186.456704,221.73943 193.488991,221.73943 195.935004,221.73943 C198.381017,221.73943 211.834087,221.158057 220.700883,225.518358 C226.61208,228.425226 231.402188,231.816571 235.071208,235.692395 C240.982405,243.05646 245.16101,247.610552 247.607023,249.354673 C251.276042,251.970854 262.588851,258.365963 276.959176,258.947336 C291.329501,259.52871 325.573679,255.459095 350.951061,238.599263 C376.328443,221.73943 396.202297,186.275645 398.342558,179.008475 C400.482819,171.741306 405.374844,159.823149 398.342558,143.835377 C391.310271,127.847605 376.022692,117.964255 363.486876,110.406399 C350.951061,102.848543 325.267927,95 310.591851,95 C295.915774,95 260.44859,96.7441206 236.599966,110.406399 C212.751341,124.068677 188.291214,156.625594 183.093437,171.741306 C179.628252,181.818448 177.284157,191.798693 176.06115,201.682043 Z" id="路径-2"></path>
            </g>
        </g>
    </g>
</svg>