<?xml version="1.0" encoding="UTF-8"?>
<svg width="600px" height="600px" viewBox="0 0 600 600" version="1.1" xmlns="http://www.w3.org/2000/svg" xmlns:xlink="http://www.w3.org/1999/xlink">
    <!-- Generator: Sketch 55.2 (78181) - https://sketchapp.com -->
    <title>编组</title>
    <desc>Created with Sketch.</desc>
    <g id="Logo_Practice" stroke="none" stroke-width="1" fill="none" fill-rule="evenodd">
        <g id="A4" transform="translate(-119.000000, -128.000000)">
            <g id="编组" transform="translate(119.000000, 128.000000)">
                <rect id="矩形" fill="#FFFFFF" x="0" y="0" width="600" height="600"></rect>
                <rect id="矩形" stroke="#000000" stroke-width="3" fill="#FFFFFF" x="26.5" y="26.5" width="547" height="547"></rect>
                <g id="火烈鸟羽翼-黑" transform="translate(145.000000, 85.000000)" fill="#000000" stroke="#FFFFFF" stroke-width="5">
                    <path d="M132.664693,195.937612 C132.260716,200.982098 133.312223,204.697178 135.819216,207.082854 C139.579705,210.661368 144.495558,210.544067 146.20542,210.503267 C147.915281,210.462467 157.329722,209.806264 163.451471,212.896876 C167.532637,214.957284 170.821617,217.396226 173.318409,220.213704 C177.321375,225.584591 180.162489,228.897337 181.84175,230.151942 C184.360643,232.033849 192.156554,236.594966 202.191793,236.787066 C212.227031,236.979167 236.236499,233.385353 254.272117,220.439803 C272.307736,207.494253 286.822567,180.82285 288.446197,175.389629 C290.069827,169.956408 293.698652,161.022874 289.0633,149.265629 C284.427948,137.508384 273.914712,130.422757 265.284271,125.018437 C256.653829,119.614116 238.837979,114.213196 228.578808,114.457997 C218.319636,114.702798 193.496038,116.589806 176.585183,127.134947 C159.674329,137.680088 142.004507,162.268982 138.105849,173.582526 C135.506743,181.124888 133.693025,188.576583 132.664693,195.937612 Z" id="路径-2" transform="translate(211.958068, 175.622133) rotate(51.000000) translate(-211.958068, -175.622133) "></path>
                    <path d="M96.8734562,226.119112 C96.646614,231.237802 97.806928,235.054712 100.354398,237.569841 C104.175603,241.342535 109.008605,241.395105 110.689649,241.41339 C112.370693,241.431676 121.611864,241.093238 127.739933,244.452068 C131.825313,246.691288 135.144023,249.287965 137.696065,252.242101 C141.816491,257.847034 144.724083,261.317153 146.418841,262.652456 C148.960978,264.655412 156.786091,269.569048 166.666796,270.11548 C176.547501,270.661911 200.050119,267.844861 217.358383,255.303393 C234.666647,242.761924 248.046281,216.131118 249.460053,210.659541 C250.873825,205.187964 254.142202,196.224909 249.183489,184.09967 C244.224777,171.974432 233.64054,164.397045 224.965762,158.596254 C216.290984,152.795463 198.578309,146.676885 188.492045,146.567174 C178.405781,146.457463 154.044356,147.509346 137.761602,157.647709 C121.478848,167.786072 104.924401,192.187563 101.471036,203.562866 C99.1687926,211.146402 97.6362661,218.66515 96.8734562,226.119112 Z" id="路径-2" transform="translate(174.337911, 208.369538) rotate(103.000000) translate(-174.337911, -208.369538) "></path>
                    <path d="M43.8779521,217.031396 C43.6831184,221.963409 44.9171448,225.653172 47.5800315,228.100686 C51.5743614,231.771956 56.5889783,231.866456 58.3331928,231.899325 C60.0774074,231.932194 69.6623701,231.689762 76.0467778,234.983014 C80.3030495,237.178515 83.7667374,239.71163 86.4378413,242.582357 C90.7571125,248.022495 93.8011814,251.393819 95.5700479,252.696329 C98.2233476,254.650094 106.38073,259.457463 116.636208,260.073783 C126.891686,260.690103 151.253169,258.187779 169.111093,246.255606 C186.969016,234.323433 200.639503,208.774473 202.062975,203.513065 C203.486446,198.251656 206.80642,189.641518 201.565827,177.908648 C196.325234,166.175778 185.284199,158.775715 176.238274,153.105485 C167.192349,147.435255 148.767162,141.376745 138.301875,141.179529 C127.836588,140.982314 102.570129,141.77535 85.7571437,151.400392 C68.9441587,161.025434 51.9621829,184.396697 48.4693772,195.3304 C46.14084,202.619536 44.610365,209.853202 43.8779521,217.031396 Z" id="路径-2" transform="translate(124.136740, 200.657487) rotate(154.000000) translate(-124.136740, -200.657487) "></path>
                    <path d="M18.4565613,178.241803 C18.0699902,183.184772 19.1615831,186.83071 21.7313402,189.179616 C25.5859758,192.702975 30.6005926,192.608475 32.3448072,192.575606 C34.0890217,192.542737 43.6904191,191.938742 49.951567,194.993693 C54.1256656,197.030326 57.4934847,199.434702 60.0550245,202.206822 C64.1661236,207.488092 67.0814545,210.747113 68.8010171,211.983884 C71.380361,213.839041 79.3569629,218.342369 89.5960061,218.572476 C99.8350493,218.802582 124.311574,215.379918 142.646102,202.765708 C160.980631,190.151498 175.65363,164.068412 177.282534,158.749482 C178.911439,153.430553 182.568323,144.688938 177.779682,133.145066 C172.991041,121.601194 162.229395,114.611997 153.39712,109.278677 C144.564846,103.945356 126.361527,98.5771015 115.896239,98.7743171 C105.430952,98.9715327 80.1151891,100.717778 62.9159903,110.98377 C45.7167914,121.249763 27.8144761,145.278411 23.89437,156.351809 C21.2809659,163.734075 19.468363,171.030739 18.4565613,178.241803 Z" id="路径-2" transform="translate(99.268935, 158.676112) rotate(206.000000) translate(-99.268935, -158.676112) "></path>
                    <path d="M40.4184302,133.270686 C40.0849243,138.395472 41.1660024,142.188002 43.6616645,144.648275 C47.4051575,148.338686 52.2381591,148.286116 53.9192032,148.26783 C55.6002472,148.249545 64.8505608,147.709971 70.9100607,150.936233 C74.9497273,153.087074 78.215106,155.612134 80.7061967,158.511414 C84.7108166,164.027969 87.5467917,167.435613 89.2141218,168.734346 C91.7151171,170.682446 99.4396615,175.426944 109.311224,175.758525 C119.182786,176.090106 142.749402,172.76107 160.322802,159.840183 C177.896202,146.919297 191.833534,119.991356 193.361589,114.48778 C194.889643,108.984204 198.345443,99.9480076 193.638152,87.9279091 C188.930861,75.9078107 178.502048,68.5589891 169.946124,62.9456212 C161.390201,57.3322532 143.800951,51.5976652 133.714686,51.7073764 C123.628422,51.8170877 99.2395696,53.3992415 82.7419646,63.8941662 C66.2443596,74.3890908 49.1779263,99.1562858 45.4868538,110.609301 C43.0261389,118.244645 41.3366643,125.79844 40.4184302,133.270686 Z" id="路径-2" transform="translate(118.190823, 113.743178) rotate(257.000000) translate(-118.190823, -113.743178) "></path>
                    <path d="M88.4187812,116.197078 C88.2528048,121.227964 89.4811131,124.997445 92.1037063,127.505521 C96.037596,131.267636 100.953449,131.384936 102.663311,131.425737 C104.373173,131.466537 113.767213,131.259136 120.041963,134.645549 C124.22513,136.903158 127.63311,139.501902 130.265903,142.44178 C134.52727,148.009868 137.528184,151.462014 139.268646,152.798219 C141.87934,154.802527 149.899651,159.741046 159.95529,160.412549 C170.010929,161.084052 193.877596,158.632643 211.321612,146.533697 C228.765628,134.434751 242.036053,108.426352 243.404681,103.064531 C244.77331,97.7027108 247.983933,88.9323772 242.787578,76.9405312 C237.591224,64.9486851 226.731186,57.3530557 217.835543,51.5305332 C208.9399,45.7080107 190.848649,39.4502862 180.589478,39.2054851 C170.330306,38.9606839 145.567909,39.664486 129.136456,49.414023 C112.705003,59.1635599 96.177587,82.9364507 92.8093317,94.0765933 C90.5638281,101.503355 89.1003113,108.87685 88.4187812,116.197078 Z" id="路径-2" transform="translate(167.024952, 99.841083) rotate(309.000000) translate(-167.024952, -99.841083) "></path>
                    <path d="M127.044104,144.759031 C126.750077,149.63926 127.926184,153.264573 130.572423,155.63497 C134.541782,159.190566 139.613741,159.190566 141.377901,159.190566 C143.142061,159.190566 152.844939,158.77226 159.240017,161.90955 C163.503403,164.001077 166.958216,166.441192 169.604455,169.229894 C173.867841,174.528428 176.881614,177.805153 178.645773,179.06007 C181.292013,180.942444 189.451251,185.543802 199.815689,185.962108 C210.180127,186.380413 234.878361,183.452276 253.181517,171.321421 C271.484674,159.190566 285.818471,133.673939 287.36211,128.445123 C288.90575,123.216306 292.434069,114.641046 287.36211,103.137649 C282.290151,91.6342521 271.264154,84.5230612 262.222836,79.0850917 C253.181517,73.6471222 234.657841,68 224.072884,68 C213.487926,68 187.907611,69.254916 170.707055,79.0850917 C153.506498,88.9152673 135.864902,112.340367 132.116063,123.216306 C129.616837,130.466932 127.926184,137.64784 127.044104,144.759031 Z" id="路径-2"></path>
                </g>
                <text id="EYELITE" font-family="PingFangSC-Semibold, PingFang SC" font-size="50" font-weight="500" fill="#000000">
                    <tspan x="197.975" y="478">EYELITE</tspan>
                </text>
            </g>
        </g>
    </g>
</svg>