<?xml version="1.0" encoding="UTF-8"?>
<svg width="379px" height="365px" viewBox="0 0 379 365" version="1.1" xmlns="http://www.w3.org/2000/svg" xmlns:xlink="http://www.w3.org/1999/xlink">
    <!-- Generator: Sketch 55.2 (78181) - https://sketchapp.com -->
    <title>火烈鸟羽翼-彩</title>
    <desc>Created with Sketch.</desc>
    <defs>
        <linearGradient x1="50%" y1="0%" x2="50%" y2="100%" id="linearGradient-1">
            <stop stop-color="#3133FE" offset="0%"></stop>
            <stop stop-color="#FEAFFF" offset="100%"></stop>
        </linearGradient>
        <linearGradient x1="50%" y1="0%" x2="50%" y2="100%" id="linearGradient-2">
            <stop stop-color="#DF1BFF" offset="0%"></stop>
            <stop stop-color="#FEAFFF" offset="100%"></stop>
        </linearGradient>
        <linearGradient x1="50%" y1="0%" x2="50%" y2="100%" id="linearGradient-3">
            <stop stop-color="#FF1C00" offset="0%"></stop>
            <stop stop-color="#FEAFFF" offset="100%"></stop>
        </linearGradient>
        <linearGradient x1="50%" y1="0%" x2="50%" y2="100%" id="linearGradient-4">
            <stop stop-color="#FFB500" offset="0%"></stop>
            <stop stop-color="#FEAFFF" offset="100%"></stop>
        </linearGradient>
        <linearGradient x1="50%" y1="0%" x2="50%" y2="100%" id="linearGradient-5">
            <stop stop-color="#EDFF15" offset="0%"></stop>
            <stop stop-color="#FEAFFF" offset="100%"></stop>
        </linearGradient>
        <linearGradient x1="50%" y1="0%" x2="50%" y2="100%" id="linearGradient-6">
            <stop stop-color="#4AFF89" offset="0%"></stop>
            <stop stop-color="#FEAFFF" offset="100%"></stop>
        </linearGradient>
        <linearGradient x1="50%" y1="0%" x2="50%" y2="100%" id="linearGradient-7">
            <stop stop-color="#4AFFFF" offset="0%"></stop>
            <stop stop-color="#FEAFFF" offset="100%"></stop>
        </linearGradient>
    </defs>
    <g id="Logo_Design" stroke="none" stroke-width="1" fill="none" fill-rule="evenodd" opacity="0.808082217">
        <g id="LOGO_Design" transform="translate(-4145.000000, -419.000000)">
            <g id="火烈鸟羽翼-彩" transform="translate(4122.000000, 385.000000)">
                <path d="M183.566856,271.236341 C183.011313,278.237429 184.475164,283.394904 187.958409,286.708768 C193.183277,291.679562 200.008345,291.52196 202.382281,291.467141 C204.756218,291.412323 217.826573,290.511512 226.329308,294.807621 C231.997798,297.671694 236.566814,301.060317 240.036355,304.97349 C245.599776,312.432274 249.547899,317.033222 251.880721,318.776334 C255.379955,321.391002 266.208661,327.729879 280.141833,328.007131 C294.075006,328.284383 327.406049,323.321756 352.433073,305.373022 C377.460097,287.424288 397.58431,250.420971 399.832812,242.881629 C402.081314,235.342286 407.110131,222.946792 400.66194,206.623367 C394.213748,190.299941 379.609623,180.454284 367.621359,172.944196 C355.633094,165.434109 330.891773,157.919015 316.648154,158.247925 C302.404535,158.576835 267.941342,161.169631 244.473404,175.787898 C221.005465,190.406165 196.498643,224.515715 191.097709,240.214267 C187.497086,250.679969 184.986802,261.02066 183.566856,271.236341 Z" id="路径-2" fill="url(#linearGradient-1)" style="mix-blend-mode: multiply;" transform="translate(293.640636, 243.127751) rotate(51.000000) translate(-293.640636, -243.127751) "></path>
                <path d="M133.844388,313.276092 C133.526841,320.37688 135.136882,325.671171 138.674512,329.158965 C143.980957,334.390656 150.694707,334.461288 153.029925,334.485856 C155.365142,334.510423 168.202695,334.036556 176.713923,338.693038 C182.388074,341.797359 186.997036,345.397912 190.540808,349.494696 C196.262047,357.26794 200.299489,362.08033 202.653132,363.931868 C206.183596,366.709174 217.051538,373.521688 230.777081,374.275013 C244.502625,375.028338 277.152675,371.109355 301.202439,353.703538 C325.252204,336.29772 343.851188,299.348948 345.817729,291.75807 C347.78427,284.167193 352.328796,271.732036 345.446144,254.914181 C338.563491,238.096327 323.86397,227.589951 311.816137,219.547173 C299.768303,211.504395 275.165605,203.025071 261.154301,202.877665 C247.142997,202.730259 213.300771,204.200998 190.676737,218.272726 C168.052703,232.344454 145.044476,266.202213 140.241829,281.983744 C137.040064,292.504765 134.907584,302.935547 133.844388,313.276092 Z" id="路径-2" fill="url(#linearGradient-2)" style="mix-blend-mode: multiply;" transform="translate(241.460904, 288.615197) rotate(103.000000) translate(-241.460904, -288.615197) "></path>
                <path d="M60.4581019,300.71622 C60.1835605,307.566191 61.8926406,312.68965 65.5853422,316.086597 C71.1243945,321.182018 78.0821591,321.308986 80.5022511,321.353148 C82.9223431,321.397311 96.2218085,321.052433 105.077447,325.620807 C110.981206,328.666389 115.784956,332.181539 119.488698,336.166258 C125.477102,343.718086 129.697911,348.397739 132.151125,350.205215 C135.830945,352.916429 147.145318,359.586164 161.374399,360.43339 C175.60348,361.280616 209.407484,357.784493 234.19576,341.197313 C258.984037,324.610133 277.973806,289.114908 279.953379,281.80641 C281.932952,274.497911 286.546803,262.536926 279.285421,246.24625 C272.024039,229.955574 256.710774,219.687447 244.164274,211.820088 C231.617774,203.952729 206.05776,195.554111 191.537208,195.289136 C177.016655,195.024161 141.958443,196.147118 118.622001,209.529158 C95.2855584,222.911198 71.7029134,255.384762 66.8472741,270.572969 C63.6101813,280.69844 61.4804572,290.74619 60.4581019,300.71622 Z" id="路径-2" fill="url(#linearGradient-3)" style="mix-blend-mode: multiply;" transform="translate(171.829015, 277.903872) rotate(154.000000) translate(-171.829015, -277.903872) "></path>
                <path d="M25.2148304,246.675895 C24.6826744,253.540586 26.2003837,258.605162 29.7679581,261.869622 C35.1193198,266.766312 42.0770844,266.639345 44.4971764,266.595182 C46.9172684,266.55102 60.2388151,265.720355 68.9288439,269.96855 C74.7221965,272.80068 79.3971397,276.142861 82.9536735,279.995092 C88.6623813,287.333468 92.7102202,291.862232 95.0971904,293.581383 C98.6776455,296.16011 109.749124,302.421342 123.956124,302.749658 C138.163124,303.077975 172.121697,298.345301 197.550329,280.841749 C222.978962,263.338197 243.315688,227.125331 245.571276,219.739549 C247.826865,212.353766 252.893382,200.216131 246.239234,184.179389 C239.585087,168.142647 224.647203,158.426552 212.387759,151.011859 C200.128316,143.597165 174.866398,136.12596 160.345846,136.390935 C145.825294,136.65591 110.700838,139.05958 86.8454861,153.302789 C62.9901342,167.545997 38.170939,200.902811 32.7411872,216.278709 C29.1213527,226.529307 26.6125671,236.661703 25.2148304,246.675895 Z" id="路径-2" fill="url(#linearGradient-4)" style="mix-blend-mode: multiply;" transform="translate(137.329526, 219.574733) rotate(206.000000) translate(-137.329526, -219.574733) "></path>
                <path d="M55.5485357,184.203364 C55.0876772,191.312341 56.5912589,196.573875 60.0592807,199.987966 C65.2613135,205.109103 71.9750634,205.038471 74.3102807,205.013903 C76.645498,204.989336 89.4953353,204.245224 97.9144339,208.72359 C103.527166,211.709168 108.064472,215.213498 111.526352,219.236579 C117.091997,226.891079 121.033215,231.61953 123.350006,233.421932 C126.825194,236.125536 137.558013,242.710799 151.271273,243.175454 C164.984533,243.640109 197.720569,239.033233 222.126564,221.117636 C246.53256,203.20204 265.880857,165.854043 268.000946,158.220173 C270.121035,150.586302 274.917379,138.052874 268.372532,121.376284 C261.827685,104.699693 247.336989,94.5004127 235.448845,86.7094531 C223.560701,78.9184935 199.123834,70.9550901 185.11253,71.102496 C171.101226,71.2499018 137.222149,73.4331024 114.309445,87.9838997 C91.396741,102.534697 67.7006206,136.883808 62.578594,152.769752 C59.1639097,163.360381 56.8205569,173.838252 55.5485357,184.203364 Z" id="路径-2" fill="url(#linearGradient-5)" style="mix-blend-mode: multiply;" transform="translate(163.578791, 157.153556) rotate(257.000000) translate(-163.578791, -157.153556) "></path>
                <path d="M122.159225,160.631143 C121.923456,167.613958 123.624853,172.844524 127.263417,176.322842 C132.721263,181.54032 139.546331,181.697922 141.920267,181.752741 C144.294204,181.807559 157.33715,181.50975 166.045454,186.203292 C171.85099,189.332321 176.579892,192.935649 180.232161,197.013277 C186.142766,204.737016 190.305593,209.52526 192.720643,211.378009 C196.343219,214.157132 207.473425,221.003078 221.434007,221.924446 C235.394588,222.845814 268.533767,219.4181 292.765925,202.606847 C316.998083,185.795594 335.450337,149.683076 337.356224,142.239665 C339.262111,134.796255 343.72904,122.620034 336.527096,105.981403 C329.325153,89.3427722 314.255072,78.8118854 301.910487,70.7399098 C289.565903,62.6679342 264.454558,54.0016549 250.21094,53.6727448 C235.967321,53.3438347 201.586355,54.346899 178.762533,67.8962079 C155.93871,81.4455168 132.966802,114.4587 128.278506,129.924274 C125.152976,140.234657 123.113215,150.47028 122.159225,160.631143 Z" id="路径-2" fill="url(#linearGradient-6)" style="mix-blend-mode: multiply;" transform="translate(231.309701, 137.843023) rotate(309.000000) translate(-231.309701, -137.843023) "></path>
                <path d="M175.696323,200.818782 C175.288654,207.601473 176.919329,212.640044 180.588348,215.934494 C186.091877,220.876169 193.124164,220.876169 195.570176,220.876169 C198.016189,220.876169 211.469259,220.294795 220.336055,224.655097 C226.247253,227.561964 231.037361,230.95331 234.70638,234.829134 C240.617578,242.193198 244.796183,246.747291 247.242196,248.491412 C250.911215,251.107593 262.224024,257.502701 276.594348,258.084075 C290.964673,258.665448 325.208852,254.595834 350.586234,237.736001 C375.963616,220.876169 395.837469,185.412383 397.97773,178.145214 C400.117992,170.878045 405.010017,158.959888 397.97773,142.972116 C390.945444,126.984343 375.657864,117.100993 363.122049,109.543137 C350.586234,101.985281 324.9031,94.1367388 310.227023,94.1367388 C295.550947,94.1367388 260.083762,95.8808594 236.235138,109.543137 C212.386514,123.205415 187.926387,155.762333 182.72861,170.878045 C179.263425,180.955186 176.919329,190.935432 175.696323,200.818782 Z" id="路径-2" fill="url(#linearGradient-7)" style="mix-blend-mode: multiply;"></path>
            </g>
        </g>
    </g>
</svg>