<?xml version="1.0" encoding="UTF-8"?>
<svg width="166px" height="166px" viewBox="0 0 166 166" version="1.1" xmlns="http://www.w3.org/2000/svg" xmlns:xlink="http://www.w3.org/1999/xlink">
    <!-- Generator: Sketch 55.2 (78181) - https://sketchapp.com -->
    <title>编组 2</title>
    <desc>Created with Sketch.</desc>
    <defs>
        <linearGradient x1="0.644003378%" y1="49.71231%" x2="99.3559966%" y2="49.71231%" id="linearGradient-1">
            <stop stop-color="#EF34FC" offset="0%"></stop>
            <stop stop-color="#FE5B32" offset="100%"></stop>
        </linearGradient>
    </defs>
    <g id="页面1" stroke="none" stroke-width="1" fill="none" fill-rule="evenodd">
        <g id="编组-2">
            <g id="编组" fill="#FFFFFF" fill-rule="nonzero">
                <rect id="矩形" x="0" y="0" width="166" height="166"></rect>
            </g>
            <g id="2" transform="translate(10.000000, 10.000000)">
                <rect id="矩形" fill="url(#linearGradient-1)" x="0" y="0" width="147" height="147"></rect>
                <g id="elt" transform="translate(21.000000, 48.000000)" fill-rule="nonzero">
                    <path d="M28.9321659,46.5717809 C27.1086785,47.3811913 25.2084413,47.98824 23.2313971,48.3929452 C21.2543529,48.7976504 19.2101583,49 17.0987518,49 C12.3384901,49 8.72036161,47.8581703 6.24425773,45.5744766 C3.76815385,43.290783 2.53012048,39.9520151 2.53012048,35.5580728 C2.53012048,32.8407665 2.95239543,30.2102221 3.79695799,27.6663608 C4.64152056,25.1224995 5.83156813,22.9159256 7.36713643,21.046573 C8.97948314,19.080862 10.8989147,17.5728759 13.1254887,16.5225695 C15.3520628,15.4722632 17.7513523,14.9471179 20.3234291,14.9471179 C24.3351013,14.9471179 27.5501492,16.1034011 29.9686693,18.4160023 C32.3871893,20.7286035 33.5964312,23.7927541 33.5964312,27.608546 C33.5964312,28.4757715 33.5340497,29.4778836 33.4092848,30.6149125 C33.2845199,31.7519414 33.0877781,33.12021 32.8190537,34.7197591 L10.9661066,34.7197591 C10.9085228,35.0473776 10.8653356,35.3557198 10.8365437,35.644795 C10.8077518,35.9338701 10.7837589,36.2229409 10.7645643,36.5120161 C10.7645643,38.419912 11.4075739,39.8604482 12.6936123,40.8336679 C13.9796508,41.8068876 15.879888,42.2934901 18.3943811,42.2934901 C20.4673983,42.2934901 22.5403844,41.9947836 24.6134016,41.3973616 C26.6864188,40.7999397 28.6154476,39.9327272 30.4005457,38.7956983 L28.9321659,46.5717809 Z M25.5635298,28.389045 C25.6403082,28.1192416 25.6930925,27.85426 25.7218844,27.5940923 C25.7506764,27.3339247 25.7650721,27.0882145 25.7650721,26.8569544 C25.7650721,25.2188619 25.275617,23.9276789 24.2966922,22.9833668 C23.3177675,22.0390546 21.9741654,21.5669056 20.2658456,21.5669056 C18.3463853,21.5669056 16.7052713,22.1354116 15.3424544,23.2724405 C13.9796375,24.4094694 12.914353,26.1149872 12.1465689,28.389045 L25.5635298,28.389045 Z M53.8370396,37.6104961 C53.7602612,37.9959297 53.6978797,38.3476325 53.6498932,38.6656151 C53.6019067,38.9835978 53.5779138,39.1907652 53.5779138,39.2871236 C53.5779138,40.154349 53.8754257,40.7662156 54.4704584,41.1227416 C55.0654911,41.4792676 56.1115813,41.657528 57.6087604,41.657528 L65.6128701,41.657528 L64.3172409,48.1616863 L55.7660877,48.1616863 C51.8311939,48.1616863 49.0480181,47.6220874 47.4164768,46.5428735 C45.7849355,45.4636596 44.9691771,43.6714206 44.9691771,41.1661027 C44.9691771,40.7228541 45.0171629,40.1639839 45.1131359,39.4894752 C45.2091089,38.8149665 45.3434691,38.0537467 45.5162205,37.2057929 L51.3609481,9.68597648 L42.5506691,9.68597648 L43.7887148,3.18181818 L61.0061883,3.18181818 L53.8370396,37.6104961 Z M95.7578445,6.59288787 L93.9727553,15.7854316 L105,15.7854316 L103.761954,22.2895899 L92.7347096,22.2895899 L89.7403664,37.6104961 C89.6635879,37.9959297 89.606005,38.3331789 89.5676158,38.6222541 C89.5292266,38.9113292 89.5100323,39.1329502 89.5100323,39.2871236 C89.5100323,40.154349 89.797947,40.7662156 90.3737851,41.1227416 C90.9496232,41.4792676 91.9957134,41.657528 93.5120871,41.657528 L99.9902335,41.657528 L98.7521877,48.1616863 L91.6982061,48.1616863 C87.782507,48.1616863 85.0041298,47.6269053 83.3629912,46.5573272 C81.7218525,45.4877492 80.9012955,43.7099637 80.9012955,41.2239174 C80.9012955,40.8192122 80.9444828,40.289249 81.0308585,39.634012 C81.1172342,38.978775 81.2467958,38.1693768 81.4195473,37.2057929 L84.3275152,22.2895899 L76.0642796,22.2895899 L77.3023253,15.7854316 L85.5655609,15.7854316 L87.3218584,6.59288787 L95.7578445,6.59288787 Z" fill="#0AFCFC"></path>
                    <path d="M27.6671056,45.2990536 C25.8436183,46.108464 23.943381,46.7155127 21.9663368,47.120218 C19.9892926,47.5249232 17.945098,47.7272727 15.8336916,47.7272727 C11.0734299,47.7272727 7.45530136,46.585443 4.97919749,44.3017494 C2.50309361,42.0180557 1.26506024,38.6792878 1.26506024,34.2853456 C1.26506024,31.5680392 1.68733519,28.9374948 2.53189775,26.3936335 C3.37646031,23.8497722 4.56650789,21.6431983 6.10207619,19.7738457 C7.7144229,17.8081347 9.63385448,16.3001486 11.8604285,15.2498423 C14.0870025,14.1995359 16.486292,13.6743906 19.0583689,13.6743906 C23.0700411,13.6743906 26.285089,14.8306738 28.703609,17.143275 C31.1221291,19.4558762 32.331371,22.5200268 32.331371,26.3358188 C32.331371,27.2030442 32.2689895,28.2051563 32.1442246,29.3421853 C32.0194596,30.4792142 31.8227179,31.8474827 31.5539934,33.4470318 L9.70104639,33.4470318 C9.64346258,33.7746503 9.60027537,34.0829925 9.57148346,34.3720677 C9.54269156,34.6611428 9.51869866,34.9502136 9.49950406,35.2392888 C9.49950406,37.1471848 10.1425136,38.587721 11.4285521,39.5609406 C12.7145905,40.5341603 14.6148278,41.0207628 17.1293209,41.0207628 C19.2023381,41.0207628 21.2753242,40.7220563 23.3483414,40.1246344 C25.4213586,39.5272124 27.3503873,38.6599999 29.1354855,37.522971 L27.6671056,45.2990536 Z M24.2984695,27.1163178 C24.3752479,26.8465143 24.4280323,26.5815327 24.4568242,26.3213651 C24.4856161,26.0611974 24.5000118,25.8154872 24.5000118,25.5842271 C24.5000118,23.9461346 24.0105568,22.6549517 23.031632,21.7106395 C22.0527072,20.7663274 20.7091051,20.2941784 19.0007854,20.2941784 C17.081325,20.2941784 15.440211,20.8626843 14.0773942,21.9997132 C12.7145773,23.1367421 11.6492928,24.8422599 10.8815086,27.1163178 L24.2984695,27.1163178 Z M52.5719794,36.3377689 C52.495201,36.7232024 52.4328195,37.0749052 52.384833,37.3928879 C52.3368464,37.7108705 52.3128535,37.9180379 52.3128535,38.0143963 C52.3128535,38.8816218 52.6103654,39.4934883 53.2053982,39.8500143 C53.8004309,40.2065404 54.8465211,40.3848007 56.3437002,40.3848007 L64.3478099,40.3848007 L63.0521806,46.888959 L54.5010274,46.888959 C50.5661337,46.888959 47.7829579,46.3493601 46.1514166,45.2701463 C44.5198753,44.1909324 43.7041168,42.3986933 43.7041168,39.8933754 C43.7041168,39.4501268 43.7521026,38.8912566 43.8480756,38.2167479 C43.9440487,37.5422392 44.0784089,36.7810194 44.2511603,35.9330657 L50.0958879,8.41324921 L41.2856089,8.41324921 L42.5236546,1.90909091 L59.741128,1.90909091 L52.5719794,36.3377689 Z M94.4927843,5.3201606 L92.7076951,14.5127043 L103.73494,14.5127043 L102.496894,21.0168626 L91.4696493,21.0168626 L88.4753061,36.3377689 C88.3985277,36.7232024 88.3409448,37.0604517 88.3025555,37.3495268 C88.2641663,37.638602 88.244972,37.8602229 88.244972,38.0143963 C88.244972,38.8816218 88.5328868,39.4934883 89.1087249,39.8500143 C89.684563,40.2065404 90.7306532,40.3848007 92.2470269,40.3848007 L98.7251732,40.3848007 L97.4871275,46.888959 L90.4331459,46.888959 C86.5174467,46.888959 83.7390695,46.354178 82.0979309,45.2845999 C80.4567923,44.2150219 79.6362353,42.4372364 79.6362353,39.9511901 C79.6362353,39.5464849 79.6794225,39.0165218 79.7657982,38.3612848 C79.8521739,37.7060478 79.9817356,36.8966495 80.154487,35.9330657 L83.0624549,21.0168626 L74.7992194,21.0168626 L76.0372651,14.5127043 L84.3005007,14.5127043 L86.0567981,5.3201606 L94.4927843,5.3201606 Z" fill="#09FB30"></path>
                    <path d="M26.4020454,43.3899627 C24.578558,44.1993731 22.6783208,44.8064218 20.7012766,45.211127 C18.7242324,45.6158323 16.6800378,45.8181818 14.5686314,45.8181818 C9.80836965,45.8181818 6.19024112,44.6763521 3.71413725,42.3926584 C1.23803337,40.1089648 0,36.7701969 0,32.3762547 C0,29.6589483 0.422274947,27.0284039 1.26683751,24.4845426 C2.11140007,21.9406813 3.30144765,19.7341074 4.83701595,17.8647548 C6.44936266,15.8990438 8.36879424,14.3910577 10.5953683,13.3407514 C12.8219423,12.290445 15.2212318,11.7652997 17.7933087,11.7652997 C21.8049808,11.7652997 25.0200287,12.9215829 27.4385488,15.2341841 C29.8570689,17.5467853 31.0663108,20.6109359 31.0663108,24.4267278 C31.0663108,25.2939533 31.0039292,26.2960654 30.8791643,27.4330944 C30.7543994,28.5701233 30.5576577,29.9383918 30.2889332,31.5379409 L8.43598615,31.5379409 C8.37840234,31.8655594 8.33521513,32.1739016 8.30642322,32.4629768 C8.27763131,32.7520519 8.25363842,33.0411227 8.23444382,33.3301979 C8.23444382,35.2380939 8.8774534,36.6786301 10.1634918,37.6518497 C11.4495303,38.6250694 13.3497676,39.1116719 15.8642606,39.1116719 C17.9372778,39.1116719 20.0102639,38.8129654 22.0832811,38.2155434 C24.1562983,37.6181215 26.0853271,36.750909 27.8704252,35.6138801 L26.4020454,43.3899627 Z M23.0334093,25.2072268 C23.1101877,24.9374234 23.1629721,24.6724418 23.191764,24.4122742 C23.2205559,24.1521065 23.2349516,23.9063963 23.2349516,23.6751362 C23.2349516,22.0370437 22.7454966,20.7458608 21.7665718,19.8015486 C20.787647,18.8572365 19.4440449,18.3850875 17.7357251,18.3850875 C15.8162648,18.3850875 14.1751508,18.9535934 12.8123339,20.0906223 C11.449517,21.2276512 10.3842325,22.933169 9.61644837,25.2072268 L23.0334093,25.2072268 Z M51.3069192,34.4286779 C51.2301407,34.8141115 51.1677592,35.1658143 51.1197727,35.483797 C51.0717862,35.8017796 51.0477933,36.008947 51.0477933,36.1053054 C51.0477933,36.9725309 51.3453052,37.5843974 51.9403379,37.9409234 C52.5353706,38.2974494 53.5814608,38.4757098 55.0786399,38.4757098 L63.0827497,38.4757098 L61.7871204,44.9798681 L53.2359672,44.9798681 C49.3010734,44.9798681 46.5178976,44.4402692 44.8863563,43.3610553 C43.254815,42.2818415 42.4390566,40.4896024 42.4390566,37.9842845 C42.4390566,37.5410359 42.4870424,36.9821657 42.5830154,36.307657 C42.6789884,35.6331483 42.8133486,34.8719285 42.9861001,34.0239748 L48.8308277,6.5041583 L40.0205486,6.5041583 L41.2585944,0 L58.4760678,0 L51.3069192,34.4286779 Z M93.227724,3.41106969 L91.4426348,12.6036134 L102.46988,12.6036134 L101.231834,19.1077717 L90.2045891,19.1077717 L87.2102459,34.4286779 C87.1334675,34.8141115 87.0758845,35.1513608 87.0374953,35.4404359 C86.9991061,35.7295111 86.9799118,35.951132 86.9799118,36.1053054 C86.9799118,36.9725309 87.2678265,37.5843974 87.8436646,37.9409234 C88.4195027,38.2974494 89.4655929,38.4757098 90.9819666,38.4757098 L97.460113,38.4757098 L96.2220673,44.9798681 L89.1680857,44.9798681 C85.2523865,44.9798681 82.4740093,44.4450871 80.8328707,43.375509 C79.1917321,42.305931 78.3711751,40.5281455 78.3711751,38.0420992 C78.3711751,37.637394 78.4143623,37.1074309 78.500738,36.4521939 C78.5871137,35.7969569 78.7166753,34.9875586 78.8894268,34.0239748 L81.7973947,19.1077717 L73.5341591,19.1077717 L74.7722049,12.6036134 L83.0354404,12.6036134 L84.7917379,3.41106969 L93.227724,3.41106969 Z" fill="#FFFFFF"></path>
                </g>
            </g>
        </g>
    </g>
</svg>