<?xml version="1.0" encoding="UTF-8"?>
<svg width="231px" height="231px" viewBox="0 0 231 231" version="1.1" xmlns="http://www.w3.org/2000/svg" xmlns:xlink="http://www.w3.org/1999/xlink">
    <!-- Generator: Sketch 55.2 (78181) - https://sketchapp.com -->
    <title>2</title>
    <desc>Created with Sketch.</desc>
    <defs>
        <linearGradient x1="0.644003378%" y1="49.71231%" x2="99.3559966%" y2="49.71231%" id="linearGradient-1">
            <stop stop-color="#EF34FC" offset="0%"></stop>
            <stop stop-color="#FE5B32" offset="100%"></stop>
        </linearGradient>
    </defs>
    <g id="页面1" stroke="none" stroke-width="1" fill="none" fill-rule="evenodd">
        <g id="elt" transform="translate(-846.000000, -126.000000)">
            <g id="2" transform="translate(846.000000, 126.000000)">
                <rect id="矩形" fill="url(#linearGradient-1)" x="0" y="0" width="231" height="231"></rect>
                <g id="elt" transform="translate(32.000000, 76.000000)" fill-rule="nonzero">
                    <path d="M45.7403765,73.1842271 C42.8575298,74.4561578 39.8533452,75.4100915 36.7277325,76.0460568 C33.6021198,76.6820221 30.3703454,77 27.0323124,77 C19.5065653,77 13.7864764,75.2056962 9.87187412,71.6170347 C5.9572718,68.0283732 4,62.781738 4,55.8769716 C4,51.6069187 4.66759658,47.4732061 6.00280978,43.4757098 C7.33802297,39.4782135 9.21943153,36.0107402 11.6470919,33.0731861 C14.1961353,29.9842117 17.2306652,27.6145193 20.7507727,25.9640379 C24.2708802,24.3135564 28.0640426,23.4883281 32.1303737,23.4883281 C38.4726364,23.4883281 43.555474,25.3053446 47.3790391,28.9394322 C51.2026041,32.5735197 53.114358,37.3886136 53.114358,43.384858 C53.114358,44.7476409 53.0157357,46.3223885 52.8184883,48.1091483 C52.6212409,49.895908 52.3102016,52.0460442 51.8853611,54.5596215 L17.3368924,54.5596215 C17.2458551,55.0744505 17.1775782,55.5589883 17.1320596,56.0132492 C17.0865409,56.4675102 17.0486093,56.9217643 17.0182636,57.3760252 C17.0182636,60.3741475 18.0348311,62.6378472 20.0679966,64.1671924 C22.1011622,65.6965376 25.1053468,66.4611987 29.0806406,66.4611987 C32.3579821,66.4611987 35.6352744,65.9918028 38.9126159,65.0529968 C42.1899574,64.1141909 45.23966,62.7514285 48.0618151,60.9646688 L45.7403765,73.1842271 Z M40.4147232,44.6113565 C40.5361063,44.1873796 40.6195558,43.77098 40.6650745,43.3621451 C40.7105931,42.9533103 40.7333521,42.5671942 40.7333521,42.2037855 C40.7333521,39.6296401 39.9595469,37.6006383 38.4119135,36.1167192 C36.86428,34.6328002 34.740109,33.8908517 32.0393369,33.8908517 C29.0047614,33.8908517 26.4102384,34.7842182 24.2556898,36.5709779 C22.1011412,38.3577376 20.4169771,41.037837 19.203147,44.6113565 L40.4147232,44.6113565 Z M85.113796,59.1022082 C84.992413,59.7078895 84.8937908,60.2605653 84.8179264,60.7602524 C84.742062,61.2599394 84.7041304,61.5854882 84.7041304,61.7369085 C84.7041304,63.0996914 85.1744825,64.0611959 86.1152009,64.6214511 C87.0559193,65.1817063 88.7097381,65.4618297 91.0767069,65.4618297 L103.730823,65.4618297 L101.682495,75.6826498 L88.1635291,75.6826498 C81.9426494,75.6826498 77.542581,74.8347088 74.9631919,73.1388013 C72.3838028,71.4428937 71.0941276,68.6265181 71.0941276,64.6895899 C71.0941276,63.9930565 71.1699908,63.1148318 71.3217196,62.0548896 C71.4734484,60.9949474 71.6858655,59.7987448 71.9589772,58.4662461 L81.1992133,15.2208202 L67.2705816,15.2208202 L69.227873,5 L96.4478786,5 L85.113796,59.1022082 Z M151.388592,10.3602524 L148.566451,24.8056782 L166,24.8056782 L164.042709,35.0264984 L146.60916,35.0264984 L141.875246,59.1022082 C141.753863,59.7078895 141.662827,60.2378526 141.602135,60.6921136 C141.541444,61.1463745 141.511099,61.494636 141.511099,61.7369085 C141.511099,63.0996914 141.966278,64.0611959 142.876651,64.6214511 C143.787023,65.1817063 145.440842,65.4618297 147.838157,65.4618297 L158.079798,65.4618297 L156.122506,75.6826498 L144.970497,75.6826498 C138.779963,75.6826498 134.387481,74.8422797 131.792919,73.1615142 C129.198357,71.4807487 127.901096,68.6870858 127.901096,64.7804416 C127.901096,64.1444763 127.969373,63.3116771 128.105929,62.2820189 C128.242485,61.2523608 128.447315,59.9804492 128.720427,58.4662461 L133.317786,35.0264984 L120.254004,35.0264984 L122.211295,24.8056782 L135.275077,24.8056782 L138.0517,10.3602524 L151.388592,10.3602524 Z" fill="#0AFCFC"></path>
                    <path d="M43.7403765,71.1842271 C40.8575298,72.4561578 37.8533452,73.4100915 34.7277325,74.0460568 C31.6021198,74.6820221 28.3703454,75 25.0323124,75 C17.5065653,75 11.7864764,73.2056962 7.87187412,69.6170347 C3.9572718,66.0283732 2,60.781738 2,53.8769716 C2,49.6069187 2.66759658,45.4732061 4.00280978,41.4757098 C5.33802297,37.4782135 7.21943153,34.0107402 9.64709188,31.0731861 C12.1961353,27.9842117 15.2306652,25.6145193 18.7507727,23.9640379 C22.2708802,22.3135564 26.0640426,21.4883281 30.1303737,21.4883281 C36.4726364,21.4883281 41.555474,23.3053446 45.3790391,26.9394322 C49.2026041,30.5735197 51.114358,35.3886136 51.114358,41.384858 C51.114358,42.7476409 51.0157357,44.3223885 50.8184883,46.1091483 C50.6212409,47.895908 50.3102016,50.0460442 49.8853611,52.5596215 L15.3368924,52.5596215 C15.2458551,53.0744505 15.1775782,53.5589883 15.1320596,54.0132492 C15.0865409,54.4675102 15.0486093,54.9217643 15.0182636,55.3760252 C15.0182636,58.3741475 16.0348311,60.6378472 18.0679966,62.1671924 C20.1011622,63.6965376 23.1053468,64.4611987 27.0806406,64.4611987 C30.3579821,64.4611987 33.6352744,63.9918028 36.9126159,63.0529968 C40.1899574,62.1141909 43.23966,60.7514285 46.0618151,58.9646688 L43.7403765,71.1842271 Z M38.4147232,42.6113565 C38.5361063,42.1873796 38.6195558,41.77098 38.6650745,41.3621451 C38.7105931,40.9533103 38.7333521,40.5671942 38.7333521,40.2037855 C38.7333521,37.6296401 37.9595469,35.6006383 36.4119135,34.1167192 C34.86428,32.6328002 32.740109,31.8908517 30.0393369,31.8908517 C27.0047614,31.8908517 24.4102384,32.7842182 22.2556898,34.5709779 C20.1011412,36.3577376 18.4169771,39.037837 17.203147,42.6113565 L38.4147232,42.6113565 Z M83.113796,57.1022082 C82.992413,57.7078895 82.8937908,58.2605653 82.8179264,58.7602524 C82.742062,59.2599394 82.7041304,59.5854882 82.7041304,59.7369085 C82.7041304,61.0996914 83.1744825,62.0611959 84.1152009,62.6214511 C85.0559193,63.1817063 86.7097381,63.4618297 89.0767069,63.4618297 L101.730823,63.4618297 L99.6824951,73.6826498 L86.1635291,73.6826498 C79.9426494,73.6826498 75.542581,72.8347088 72.9631919,71.1388013 C70.3838028,69.4428937 69.0941276,66.6265181 69.0941276,62.6895899 C69.0941276,61.9930565 69.1699908,61.1148318 69.3217196,60.0548896 C69.4734484,58.9949474 69.6858655,57.7987448 69.9589772,56.4662461 L79.1992133,13.2208202 L65.2705816,13.2208202 L67.227873,3 L94.4478786,3 L83.113796,57.1022082 Z M149.388592,8.36025237 L146.566451,22.8056782 L164,22.8056782 L162.042709,33.0264984 L144.60916,33.0264984 L139.875246,57.1022082 C139.753863,57.7078895 139.662827,58.2378526 139.602135,58.6921136 C139.541444,59.1463745 139.511099,59.494636 139.511099,59.7369085 C139.511099,61.0996914 139.966278,62.0611959 140.876651,62.6214511 C141.787023,63.1817063 143.440842,63.4618297 145.838157,63.4618297 L156.079798,63.4618297 L154.122506,73.6826498 L142.970497,73.6826498 C136.779963,73.6826498 132.387481,72.8422797 129.792919,71.1615142 C127.198357,69.4807487 125.901096,66.6870858 125.901096,62.7804416 C125.901096,62.1444763 125.969373,61.3116771 126.105929,60.2820189 C126.242485,59.2523608 126.447315,57.9804492 126.720427,56.4662461 L131.317786,33.0264984 L118.254004,33.0264984 L120.211295,22.8056782 L133.275077,22.8056782 L136.0517,8.36025237 L149.388592,8.36025237 Z" fill="#09FB30"></path>
                    <path d="M41.7403765,68.1842271 C38.8575298,69.4561578 35.8533452,70.4100915 32.7277325,71.0460568 C29.6021198,71.6820221 26.3703454,72 23.0323124,72 C15.5065653,72 9.78647644,70.2056962 5.87187412,66.6170347 C1.9572718,63.0283732 0,57.781738 0,50.8769716 C0,46.6069187 0.667596583,42.4732061 2.00280978,38.4757098 C3.33802297,34.4782135 5.21943153,31.0107402 7.64709188,28.0731861 C10.1961353,24.9842117 13.2306652,22.6145193 16.7507727,20.9640379 C20.2708802,19.3135564 24.0640426,18.4883281 28.1303737,18.4883281 C34.4726364,18.4883281 39.555474,20.3053446 43.3790391,23.9394322 C47.2026041,27.5735197 49.114358,32.3886136 49.114358,38.384858 C49.114358,39.7476409 49.0157357,41.3223885 48.8184883,43.1091483 C48.6212409,44.895908 48.3102016,47.0460442 47.8853611,49.5596215 L13.3368924,49.5596215 C13.2458551,50.0744505 13.1775782,50.5589883 13.1320596,51.0132492 C13.0865409,51.4675102 13.0486093,51.9217643 13.0182636,52.3760252 C13.0182636,55.3741475 14.0348311,57.6378472 16.0679966,59.1671924 C18.1011622,60.6965376 21.1053468,61.4611987 25.0806406,61.4611987 C28.3579821,61.4611987 31.6352744,60.9918028 34.9126159,60.0529968 C38.1899574,59.1141909 41.23966,57.7514285 44.0618151,55.9646688 L41.7403765,68.1842271 Z M36.4147232,39.6113565 C36.5361063,39.1873796 36.6195558,38.77098 36.6650745,38.3621451 C36.7105931,37.9533103 36.7333521,37.5671942 36.7333521,37.2037855 C36.7333521,34.6296401 35.9595469,32.6006383 34.4119135,31.1167192 C32.86428,29.6328002 30.740109,28.8908517 28.0393369,28.8908517 C25.0047614,28.8908517 22.4102384,29.7842182 20.2556898,31.5709779 C18.1011412,33.3577376 16.4169771,36.037837 15.203147,39.6113565 L36.4147232,39.6113565 Z M81.113796,54.1022082 C80.992413,54.7078895 80.8937908,55.2605653 80.8179264,55.7602524 C80.742062,56.2599394 80.7041304,56.5854882 80.7041304,56.7369085 C80.7041304,58.0996914 81.1744825,59.0611959 82.1152009,59.6214511 C83.0559193,60.1817063 84.7097381,60.4618297 87.0767069,60.4618297 L99.7308233,60.4618297 L97.6824951,70.6826498 L84.1635291,70.6826498 C77.9426494,70.6826498 73.542581,69.8347088 70.9631919,68.1388013 C68.3838028,66.4428937 67.0941276,63.6265181 67.0941276,59.6895899 C67.0941276,58.9930565 67.1699908,58.1148318 67.3217196,57.0548896 C67.4734484,55.9949474 67.6858655,54.7987448 67.9589772,53.4662461 L77.1992133,10.2208202 L63.2705816,10.2208202 L65.227873,0 L92.4478786,0 L81.113796,54.1022082 Z M147.388592,5.36025237 L144.566451,19.8056782 L162,19.8056782 L160.042709,30.0264984 L142.60916,30.0264984 L137.875246,54.1022082 C137.753863,54.7078895 137.662827,55.2378526 137.602135,55.6921136 C137.541444,56.1463745 137.511099,56.494636 137.511099,56.7369085 C137.511099,58.0996914 137.966278,59.0611959 138.876651,59.6214511 C139.787023,60.1817063 141.440842,60.4618297 143.838157,60.4618297 L154.079798,60.4618297 L152.122506,70.6826498 L140.970497,70.6826498 C134.779963,70.6826498 130.387481,69.8422797 127.792919,68.1615142 C125.198357,66.4807487 123.901096,63.6870858 123.901096,59.7804416 C123.901096,59.1444763 123.969373,58.3116771 124.105929,57.2820189 C124.242485,56.2523608 124.447315,54.9804492 124.720427,53.4662461 L129.317786,30.0264984 L116.254004,30.0264984 L118.211295,19.8056782 L131.275077,19.8056782 L134.0517,5.36025237 L147.388592,5.36025237 Z" fill="#FFFFFF"></path>
                </g>
            </g>
        </g>
    </g>
</svg>