<?xml version="1.0" encoding="UTF-8"?>
<svg width="700px" height="700px" viewBox="0 0 700 700" version="1.1" xmlns="http://www.w3.org/2000/svg" xmlns:xlink="http://www.w3.org/1999/xlink">
    <!-- Generator: Sketch 55.2 (78181) - https://sketchapp.com -->
    <title>eye-of-ra</title>
    <desc>Created with Sketch.</desc>
    <g id="Page-1" stroke="none" stroke-width="1" fill="none" fill-rule="evenodd">
        <g id="eye-of-ra">
            <rect id="Rectangle" fill="#FFE8E8" x="0" y="0" width="700" height="700" rx="100"></rect>
            <g id="Group" transform="translate(169.000000, 372.000000)" fill="#FECC33" fill-rule="nonzero">
                <path d="M309.31,76.271 C290.599,76.271 275.377,91.493 275.377,110.204 C275.377,128.915 290.599,144.137 309.31,144.137 C326.088,144.137 340.052,131.894 342.761,115.876 C344.265,119.824 345.095,124.102 345.095,128.573 C345.095,148.304 329.042,164.358 309.31,164.358 C285.291,164.358 259.679,142.682 227.255,115.24 C187.243,81.376 137.447,39.231 65.217,15.685 L60.099,31.389 C129.249,53.93 177.674,94.914 216.585,127.848 C251.59,157.475 279.24,180.876 309.311,180.876 C338.149,180.876 361.612,157.413 361.612,128.575 C361.612,99.735 338.148,76.271 309.31,76.271 Z" id="Shape"></path>
                <path d="M24.976,0.375 L24.976,103.16 C24.976,116.403 14.241,127.139 0.997,127.139 L23.263,187.991 C45.02,187.991 62.657,170.354 62.657,148.597 L62.658,0.375 L24.976,0.375 L24.976,0.375 Z" id="Shape"></path>
            </g>
            <path d="M313.47,265.735 C237.393,265.735 170.155,293.631 129.502,336.307 C170.156,378.984 237.393,406.879 313.47,406.879 C389.548,406.879 456.785,378.983 497.438,336.307 C456.785,293.631 389.546,265.735 313.47,265.735 Z" id="Shape" fill="#FFFFFF" fill-rule="nonzero"></path>
            <path d="M627.742,280.293 L627.742,296.798 C598.013,296.798 477.379,248.406 439.546,233.574 C401.129,218.511 359.641,210.881 316.237,210.881 C272.822,210.881 231.333,218.511 192.917,233.574 C174.21,240.907 156.604,249.958 140.517,260.451 L129.505,230.832 C145.9,220.482 175.167,206.597 194.017,199.528 C232.643,185.06 274.241,178.046 317.635,178.707 C361.028,179.357 402.385,187.615 440.559,203.25 C445.91,205.342 464.761,213.358 473.988,216.947 C524.99,237.714 627.742,280.293 627.742,280.293 Z" id="Shape" fill="#0962AD" fill-rule="nonzero"></path>
            <path d="M627.742,247.294 L627.742,280.293 C604.333,279.941 524.99,248.725 473.988,227.959 C464.761,224.369 445.911,216.354 440.559,214.262 C402.385,198.627 361.028,190.369 317.635,189.719 C274.242,189.058 232.643,196.072 194.017,210.54 C175.167,217.609 156.911,226.682 140.516,237.032 L129.505,230.833 L140.516,190.203 C157.55,180.139 177.061,171.011 196.22,164.482 C235.275,151.181 277.061,145.422 320.432,147.382 C363.792,149.353 404.895,158.844 442.596,175.625 L475.617,190.346 C525.992,212.643 604.355,246.237 627.742,247.294 Z" id="Shape" fill="#0C80E4" fill-rule="nonzero"></path>
            <path d="M132.258,165.007 C127.696,165.007 124,168.704 124,173.265 L124,260.448 L140.516,260.448 L140.516,173.265 C140.516,168.704 136.82,165.007 132.258,165.007 Z" id="Shape" fill="#00E4C5" fill-rule="nonzero"></path>
            <path d="M316.23,265.735 L316.23,406.881 C355.211,406.881 386.802,375.289 386.802,336.309 C386.802,297.329 355.21,265.735 316.23,265.735 Z" id="Shape" fill="#00CCB1" fill-rule="nonzero"></path>
            <path d="M316.229,265.735 C277.248,265.735 245.657,297.327 245.657,336.307 C245.657,375.287 277.248,406.879 316.229,406.879 C341.553,406.879 362.083,375.287 362.083,336.307 C362.083,297.327 341.554,265.735 316.229,265.735 Z" id="Shape" fill="#00E4C5" fill-rule="nonzero"></path>
            <circle id="Oval" fill="#000000" fill-rule="nonzero" cx="316.226" cy="336.303" r="35.785"></circle>
            <path d="M316.23,415.139 C240.914,415.139 169.905,387.798 126.281,342.004 C123.243,338.815 123.243,333.802 126.281,330.612 C169.905,284.817 240.913,257.477 316.23,257.477 C384.997,257.477 446.013,278.728 499.848,297.477 C544.991,313.199 587.632,328.051 627.742,328.051 C632.304,328.051 636,331.748 636,336.309 C636,340.87 632.304,344.567 627.742,344.567 C584.836,344.567 540.916,329.27 494.415,313.075 C439.247,293.861 382.203,273.995 316.23,273.995 C248.565,273.995 184.861,297.162 143.927,336.309 C184.862,375.457 248.564,398.623 316.23,398.623 C387.114,398.623 453.652,373.199 494.218,330.613 C497.364,327.311 502.591,327.184 505.894,330.329 C509.196,333.475 509.323,338.702 506.178,342.005 C462.554,387.798 391.545,415.139 316.23,415.139 Z" id="Shape" fill="#0C80E4" fill-rule="nonzero"></path>
        </g>
    </g>
</svg>