<?xml version="1.0" encoding="UTF-8"?>
<svg width="272px" height="296px" viewBox="0 0 272 296" version="1.1" xmlns="http://www.w3.org/2000/svg" xmlns:xlink="http://www.w3.org/1999/xlink">
    <!-- Generator: Sketch 55.2 (78181) - https://sketchapp.com -->
    <title>A4</title>
    <desc>Created with Sketch.</desc>
    <defs>
        <linearGradient x1="50%" y1="0%" x2="50%" y2="100%" id="linearGradient-1">
            <stop stop-color="#FF5E4A" offset="0%"></stop>
            <stop stop-color="#FEAFFF" offset="100%"></stop>
        </linearGradient>
        <linearGradient x1="50%" y1="0%" x2="50%" y2="100%" id="linearGradient-2">
            <stop stop-color="#FF5E4A" offset="0%"></stop>
            <stop stop-color="#FEAFFF" offset="100%"></stop>
        </linearGradient>
        <linearGradient x1="50%" y1="0%" x2="50%" y2="100%" id="linearGradient-3">
            <stop stop-color="#FF5E4A" offset="0%"></stop>
            <stop stop-color="#FEAFFF" offset="100%"></stop>
        </linearGradient>
        <linearGradient x1="50%" y1="0%" x2="50%" y2="100%" id="linearGradient-4">
            <stop stop-color="#FF5E4A" offset="0%"></stop>
            <stop stop-color="#FEAFFF" offset="100%"></stop>
        </linearGradient>
        <linearGradient x1="50%" y1="0%" x2="50%" y2="100%" id="linearGradient-5">
            <stop stop-color="#FF5E4A" offset="0%"></stop>
            <stop stop-color="#FEAFFF" offset="100%"></stop>
        </linearGradient>
        <linearGradient x1="50%" y1="0%" x2="50%" y2="100%" id="linearGradient-6">
            <stop stop-color="#FF5E4A" offset="0%"></stop>
            <stop stop-color="#FEAFFF" offset="100%"></stop>
        </linearGradient>
        <linearGradient x1="50%" y1="0%" x2="50%" y2="100%" id="linearGradient-7">
            <stop stop-color="#FF5E4A" offset="0%"></stop>
            <stop stop-color="#FEAFFF" offset="100%"></stop>
        </linearGradient>
    </defs>
    <g id="A4" stroke="none" stroke-width="1" fill="none" fill-rule="evenodd">
        <g id="编组" transform="translate(61.000000, 59.000000)">
            <rect id="矩形" fill="#FFFFFF" x="1" y="53" width="147" height="80"></rect>
            <rect id="矩形" fill="#FFFFFF" x="1" y="0" width="147" height="125" rx="27"></rect>
            <path d="M74.5,133 C124.166667,133 148.666667,151.666667 148,189 L1,189 C0.333333333,151.666667 24.8333333,133 74.5,133 Z" id="三角形" fill="#424242" transform="translate(74.500000, 161.000000) scale(1, -1) translate(-74.500000, -161.000000) "></path>
            <path d="M48,150 L54.8735835,150 L54.8735835,151.540616 L49.5615714,151.540616 L49.5615714,154.591036 L54.5532611,154.591036 L54.5532611,156.131653 L49.5615714,156.131653 L49.5615714,159.459384 L55.1004785,159.459384 L55.1004785,161 L48,161 L48,150 Z M55.7010829,150 L57.5829766,150 L60.2523294,154.945378 L62.9083354,150 L64.7902292,150 L61.0264417,156.62465 L61.0264417,161 L59.4648703,161 L59.4648703,156.62465 L55.7010829,150 Z M65.7912365,150 L72.6648199,150 L72.6648199,151.540616 L67.3528079,151.540616 L67.3528079,154.591036 L72.3444976,154.591036 L72.3444976,156.131653 L67.3528079,156.131653 L67.3528079,159.459384 L72.8917149,159.459384 L72.8917149,161 L65.7912365,161 L65.7912365,150 Z M74.359859,150 L75.9080836,150 L75.9080836,159.459384 L81.0599345,159.459384 L81.0599345,161 L74.359859,161 L74.359859,150 Z M82.2611433,150 L83.8227147,150 L83.8227147,161 L82.2611433,161 L82.2611433,150 Z M84.9571896,150 L92.7650466,150 L92.7650466,151.540616 L89.6419038,151.540616 L89.6419038,161 L88.0803324,161 L88.0803324,151.540616 L84.9571896,151.540616 L84.9571896,150 Z M93.8995215,150 L100.773105,150 L100.773105,151.540616 L95.4610929,151.540616 L95.4610929,154.591036 L100.452783,154.591036 L100.452783,156.131653 L95.4610929,156.131653 L95.4610929,159.459384 L101,159.459384 L101,161 L93.8995215,161 L93.8995215,150 Z" id="EYELITE" fill="#FFFFFF" fill-rule="nonzero"></path>
        </g>
        <g id="火烈鸟羽翼-彩" transform="translate(81.000000, 75.000000)" opacity="0.650995164">
            <path d="M46.1942834,68.3503842 C46.0548905,70.1089094 46.4227085,71.4043993 47.2977375,72.2368539 C48.610281,73.4855359 50.3246658,73.4460991 50.9209735,73.432382 C51.5172813,73.4186649 54.8004031,73.1926859 56.936299,74.2719721 C58.3602296,74.9914962 59.5079948,75.8427529 60.3795945,76.8257423 C61.777234,78.6993663 62.7690637,79.8551219 63.3550835,80.2930091 C64.2341134,80.9498398 66.9543146,82.5422806 70.4541932,82.6122272 C73.9540719,82.6821738 82.3263852,81.4363906 88.6125272,76.9285671 C94.8986692,72.4207436 99.9528558,63.1266712 100.517491,61.2329841 C101.082126,59.339297 102.345042,56.2259 100.724963,52.1256306 C99.1048832,48.0253613 95.4362576,45.5520023 92.4247611,43.6653506 C89.4132647,41.7786989 83.1983287,39.8905095 79.6204823,39.9728122 C76.0426359,40.055115 67.3858858,40.7056177 61.4912973,44.3769268 C55.5967087,48.0482358 49.4415915,56.6153541 48.0852762,60.5584069 C47.181066,63.1871089 46.5507351,65.7844346 46.1942834,68.3503842 Z" id="路径-2" fill="url(#linearGradient-1)" style="mix-blend-mode: multiply;" transform="translate(73.843207, 61.292598) rotate(51.000000) translate(-73.843207, -61.292598) "></path>
            <path d="M33.7036421,78.9142545 C33.6238025,80.6977275 34.0282016,82.0274525 34.9168392,82.9034297 C36.2497957,84.2173956 37.9363256,84.2350697 38.5229447,84.2412173 C39.1095638,84.2473648 42.3344319,84.1282193 44.4724527,85.2976811 C45.8978,86.0773222 47.0555608,86.9816099 47.9457354,88.0105441 C49.3828654,89.962855 50.3970452,91.1715197 50.988275,91.636538 C51.8751196,92.3340655 54.6051386,94.045024 58.0530627,94.2340977 C61.5009867,94.4231714 69.7028959,93.4385383 75.7444994,89.0665681 C81.7861029,84.6945978 86.4586331,75.4141739 86.9527138,73.5075914 C87.4467945,71.6010088 88.5885265,68.4776869 86.8597324,64.2536972 C85.1309382,60.0297075 81.4384418,57.3910177 78.4120395,55.3710715 C75.3856372,53.3511253 69.2053888,51.2216577 65.6856742,51.1847725 C62.1659596,51.1478873 53.6645934,51.5176189 47.981174,55.0521682 C42.2977546,58.5867176 36.5176291,67.0908303 35.3110225,71.0546469 C34.5066181,73.6971913 33.9708246,76.3170605 33.7036421,78.9142545 Z" id="路径-2" fill="url(#linearGradient-2)" style="mix-blend-mode: multiply;" transform="translate(60.737688, 72.719187) rotate(103.000000) translate(-60.737688, -72.719187) "></path>
            <path d="M15.2753022,75.7609996 C15.206224,77.4817109 15.6354054,78.7686889 16.5628463,79.6219336 C17.9540078,80.9018007 19.7015972,80.9335716 20.3094544,80.9446223 C20.9173115,80.9556731 24.2577634,80.8688047 26.4819658,82.0162191 C27.9647674,82.7811621 29.17127,83.6640796 30.1014736,84.6649718 C31.6054558,86.5618782 32.6655195,87.7373279 33.2816647,88.1913208 C34.2058826,88.8723103 37.0476116,90.5475414 40.6215352,90.7601118 C44.1954588,90.9726823 52.6861206,90.0938607 58.912521,85.9267372 C65.1389215,81.7596138 69.9092374,72.8429091 70.4065789,71.006986 C70.9039204,69.1710628 72.0629998,66.1663924 70.2394366,62.0743179 C68.4158734,57.9822433 64.5698004,55.4031703 61.4186175,53.4271191 C58.2674346,51.4510678 51.847638,49.3417951 48.2004949,49.2754907 C44.5533518,49.2091863 35.7477107,49.491893 29.8860262,52.8538624 C24.0243418,56.2158318 18.1004802,64.3735793 16.8806134,68.188929 C16.0673689,70.7324955 15.5322652,73.2565191 15.2753022,75.7609996 Z" id="路径-2" fill="url(#linearGradient-3)" style="mix-blend-mode: multiply;" transform="translate(43.248806, 70.028498) rotate(154.000000) translate(-43.248806, -70.028498) "></path>
            <path d="M6.42404169,62.1812914 C6.29050087,63.9056863 6.67179574,65.17793 7.5679263,65.9980225 C8.91212216,67.2281613 10.6597116,67.1963905 11.2675687,67.1853397 C11.8754259,67.174289 15.2214031,66.9658626 17.4041653,68.0331592 C18.85934,68.7446903 20.0336114,69.5843259 20.9269792,70.5520658 C22.3609734,72.3955603 23.3777551,73.5332534 23.9773242,73.9651449 C24.8766779,74.6129821 27.6576279,76.1859939 31.2260262,76.2687183 C34.7944244,76.3514426 43.3237637,75.1632006 49.7103998,70.7667744 C56.0970358,66.3703483 61.2043991,57.2740693 61.7708076,55.4188074 C62.3372162,53.5635454 63.6095656,50.5146721 61.9379499,46.4861393 C60.2663343,42.4576064 56.5141926,40.0166676 53.4348394,38.1538863 C50.3554862,36.291105 44.010282,34.4138977 40.3631389,34.4802021 C36.7159959,34.5465065 27.8937787,35.1496843 21.9022481,38.727143 C15.9107176,42.3046017 9.67743552,50.6833637 8.31390925,54.5456791 C7.40489175,57.120556 6.77493589,59.6657601 6.42404169,62.1812914 Z" id="路径-2" fill="url(#linearGradient-4)" style="mix-blend-mode: multiply;" transform="translate(34.583662, 55.375594) rotate(206.000000) translate(-34.583662, -55.375594) "></path>
            <path d="M14.0390045,46.4878275 C13.9233043,48.2733496 14.3010641,49.594878 15.1722837,50.4524126 C16.4791132,51.7387145 18.165643,51.7210404 18.7522621,51.7148929 C19.3388812,51.7087453 22.5668231,51.521977 24.6817907,52.6468691 C26.0917691,53.3967972 27.2315997,54.2770071 28.1012824,55.2874986 C29.4994781,57.2100965 30.4895801,58.3977571 31.0715886,58.8504803 C31.9446012,59.5295652 34.6408088,61.1836591 38.0856591,61.3004992 C41.5305094,61.4173394 49.7539349,60.2605755 55.8846776,55.7610439 C62.0154203,51.2615123 66.8754503,41.881191 67.4079531,39.9638503 C67.9404558,38.0465096 69.1452001,34.8985975 67.5009345,30.7099562 C65.8566689,26.5213148 62.2164266,23.9594691 59.2299832,22.0025351 C56.2435398,20.0456012 50.1047873,18.0452317 46.5850727,18.0821169 C43.0653581,18.1190021 34.5547706,18.6670121 28.7991177,22.3214384 C23.0434648,25.9758646 17.0912084,34.6029279 15.8046838,38.5928716 C14.9470008,41.252834 14.358441,43.884486 14.0390045,46.4878275 Z" id="路径-2" fill="url(#linearGradient-5)" style="mix-blend-mode: multiply;" transform="translate(41.176580, 39.694982) rotate(257.000000) translate(-41.176580, -39.694982) "></path>
            <path d="M30.769983,40.5705501 C30.7106067,42.3245029 31.1378656,43.6382823 32.0517598,44.5118883 C33.4226011,45.8222974 35.1369859,45.8617341 35.7332936,45.8754513 C36.3296013,45.8891684 39.6058646,45.8140778 41.7931998,46.9928132 C43.2514232,47.7786368 44.4391967,48.6836189 45.3565202,49.7077598 C46.8410348,51.6476832 47.8865899,52.8503057 48.4931855,53.3156271 C49.4030789,54.0136092 52.1987242,55.7329334 55.7054615,55.9640563 C59.2121987,56.1951792 67.5365021,55.3334757 73.6237457,51.1102826 C79.7109892,46.8870896 84.3468034,37.8159205 84.8257066,35.9462384 C85.3046098,34.0765563 86.426925,31.0180278 84.618235,26.838885 C82.809545,22.6597421 79.0243238,20.014919 75.923666,17.9876667 C72.8230082,15.9604145 66.5154816,13.7841652 62.9376352,13.7018625 C59.3597888,13.6195597 50.7236144,13.8722656 44.9902021,17.2760906 C39.2567898,20.6799156 33.4857523,28.9726913 32.3077597,32.8574463 C31.5224313,35.447283 31.009839,38.0183176 30.769983,40.5705501 Z" id="路径-2" fill="url(#linearGradient-6)" style="mix-blend-mode: multiply;" transform="translate(58.187869, 34.844116) rotate(309.000000) translate(-58.187869, -34.844116) "></path>
            <path d="M44.0154229,50.6705108 C43.9126037,52.3661836 44.3238802,53.6258263 45.2492523,54.4494388 C46.6373104,55.6848575 48.4109402,55.6848575 49.0278549,55.6848575 C49.6447697,55.6848575 53.0378006,55.5395141 55.2741165,56.6295895 C56.7649937,57.3563064 57.9731183,58.2041428 58.8984904,59.1730987 C60.3893676,61.0141149 61.4432636,62.1526381 62.0601783,62.5886682 C62.9855504,63.2427134 65.838781,64.8414907 69.4631549,64.986834 C73.0875289,65.1321774 81.7243349,64.1147737 88.1248251,59.8998156 C94.5253153,55.6848575 99.5377474,46.8189112 100.077548,45.0021189 C100.617348,43.1853266 101.851178,40.2057872 100.077548,36.2088442 C98.303918,32.2119011 94.448201,29.7410636 91.286513,27.8515997 C88.1248251,25.9621357 81.6472206,24 77.9457323,24 C74.244244,24 65.2989806,24.4360301 59.2840621,27.8515997 C53.2691436,31.2671692 47.0999965,39.4063986 45.7890527,43.1853266 C44.9150902,45.7046119 44.3238802,48.1996733 44.0154229,50.6705108 Z" id="路径-2" fill="url(#linearGradient-7)" style="mix-blend-mode: multiply;"></path>
        </g>
    </g>
</svg>