<?xml version="1.0" encoding="UTF-8"?>
<svg width="272px" height="296px" viewBox="0 0 272 296" version="1.1" xmlns="http://www.w3.org/2000/svg" xmlns:xlink="http://www.w3.org/1999/xlink">
    <!-- Generator: Sketch 55.2 (78181) - https://sketchapp.com -->
    <title>A4</title>
    <desc>Created with Sketch.</desc>
    <defs>
        <linearGradient x1="50%" y1="-2.48949813e-15%" x2="50%" y2="100%" id="linearGradient-1">
            <stop stop-color="#595959" offset="0%"></stop>
            <stop stop-color="#2D2D2D" offset="100%"></stop>
        </linearGradient>
        <linearGradient x1="50%" y1="0%" x2="50%" y2="100%" id="linearGradient-2">
            <stop stop-color="#3133FE" offset="0%"></stop>
            <stop stop-color="#FEAFFF" offset="100%"></stop>
        </linearGradient>
        <linearGradient x1="50%" y1="0%" x2="50%" y2="100%" id="linearGradient-3">
            <stop stop-color="#DF1BFF" offset="0%"></stop>
            <stop stop-color="#FEAFFF" offset="100%"></stop>
        </linearGradient>
        <linearGradient x1="50%" y1="0%" x2="50%" y2="100%" id="linearGradient-4">
            <stop stop-color="#FF1C00" offset="0%"></stop>
            <stop stop-color="#FEAFFF" offset="100%"></stop>
        </linearGradient>
        <linearGradient x1="50%" y1="0%" x2="50%" y2="100%" id="linearGradient-5">
            <stop stop-color="#FFB500" offset="0%"></stop>
            <stop stop-color="#FEAFFF" offset="100%"></stop>
        </linearGradient>
        <linearGradient x1="50%" y1="0%" x2="50%" y2="100%" id="linearGradient-6">
            <stop stop-color="#EDFF15" offset="0%"></stop>
            <stop stop-color="#FEAFFF" offset="100%"></stop>
        </linearGradient>
        <linearGradient x1="50%" y1="0%" x2="50%" y2="100%" id="linearGradient-7">
            <stop stop-color="#4AFF89" offset="0%"></stop>
            <stop stop-color="#FEAFFF" offset="100%"></stop>
        </linearGradient>
        <linearGradient x1="50%" y1="0%" x2="50%" y2="100%" id="linearGradient-8">
            <stop stop-color="#4AFFFF" offset="0%"></stop>
            <stop stop-color="#FEAFFF" offset="100%"></stop>
        </linearGradient>
    </defs>
    <g id="A4" stroke="none" stroke-width="1" fill="none" fill-rule="evenodd">
        <g id="编组" transform="translate(61.000000, 59.000000)">
            <rect id="矩形" fill="#FFFFFF" x="1" y="53" width="147" height="80"></rect>
            <rect id="矩形" fill="#FFFFFF" x="1" y="0" width="147" height="125" rx="27"></rect>
            <path d="M74.5,133 C124.166667,133 148.666667,151.666667 148,189 L1,189 C0.333333333,151.666667 24.8333333,133 74.5,133 Z" id="三角形" fill="url(#linearGradient-1)" transform="translate(74.500000, 161.000000) scale(1, -1) translate(-74.500000, -161.000000) "></path>
            <path d="M48,150 L54.8735835,150 L54.8735835,151.540616 L49.5615714,151.540616 L49.5615714,154.591036 L54.5532611,154.591036 L54.5532611,156.131653 L49.5615714,156.131653 L49.5615714,159.459384 L55.1004785,159.459384 L55.1004785,161 L48,161 L48,150 Z M55.7010829,150 L57.5829766,150 L60.2523294,154.945378 L62.9083354,150 L64.7902292,150 L61.0264417,156.62465 L61.0264417,161 L59.4648703,161 L59.4648703,156.62465 L55.7010829,150 Z M65.7912365,150 L72.6648199,150 L72.6648199,151.540616 L67.3528079,151.540616 L67.3528079,154.591036 L72.3444976,154.591036 L72.3444976,156.131653 L67.3528079,156.131653 L67.3528079,159.459384 L72.8917149,159.459384 L72.8917149,161 L65.7912365,161 L65.7912365,150 Z M74.359859,150 L75.9080836,150 L75.9080836,159.459384 L81.0599345,159.459384 L81.0599345,161 L74.359859,161 L74.359859,150 Z M82.2611433,150 L83.8227147,150 L83.8227147,161 L82.2611433,161 L82.2611433,150 Z M84.9571896,150 L92.7650466,150 L92.7650466,151.540616 L89.6419038,151.540616 L89.6419038,161 L88.0803324,161 L88.0803324,151.540616 L84.9571896,151.540616 L84.9571896,150 Z M93.8995215,150 L100.773105,150 L100.773105,151.540616 L95.4610929,151.540616 L95.4610929,154.591036 L100.452783,154.591036 L100.452783,156.131653 L95.4610929,156.131653 L95.4610929,159.459384 L101,159.459384 L101,161 L93.8995215,161 L93.8995215,150 Z" id="EYELITE" fill="#FFFFFF" fill-rule="nonzero"></path>
        </g>
        <g id="火烈鸟羽翼-彩" transform="translate(79.000000, 72.000000)" opacity="0.808082217">
            <path d="M48.6308243,71.9979533 C48.4819328,73.833212 48.8628038,75.1842788 49.7734373,76.0511536 C51.1393876,77.3514659 52.9269099,77.3068455 53.5486568,77.2913254 C54.1704037,77.2758053 57.5938917,77.0333585 59.818624,78.1552444 C61.3017789,78.9031683 62.496733,79.7891108 63.4034865,80.8130718 C64.8568945,82.765323 65.8886519,83.9693179 66.4987587,84.4250563 C67.4139189,85.1086639 70.246818,86.7648313 73.895701,86.8307368 C77.544584,86.8966423 86.2762009,85.5797573 92.8393458,80.863237 C99.4024908,76.1467166 104.690866,66.4383588 105.283395,64.4612015 C105.875924,62.4840442 107.198958,59.2327373 105.518137,54.9574878 C103.837315,50.6822383 100.017358,48.108774 96.8813453,46.1461943 C93.7453328,44.1836146 87.2693708,42.2259125 83.5388893,42.3190332 C79.8084079,42.4121539 70.7814378,43.1084542 64.6282248,46.9513005 C58.4750118,50.7941469 52.0402611,59.746174 50.6181681,63.8633948 C49.6701062,66.6082087 49.0076582,69.3197282 48.6308243,71.9979533 Z" id="路径-2" fill="url(#linearGradient-2)" style="mix-blend-mode: multiply;" transform="translate(77.469598, 64.574452) rotate(51.000000) translate(-77.469598, -64.574452) "></path>
            <path d="M35.6277531,82.9216221 C35.5462427,84.7851078 35.968503,86.1749097 36.8945339,87.0910277 C38.2835802,88.4652047 40.0395864,88.485202 40.6503712,88.4921576 C41.261156,88.4991131 44.6187334,88.3775421 46.8458699,89.6014563 C48.3306275,90.4173991 49.5368913,91.3633429 50.464661,92.4392877 C51.9627502,94.4805686 53.0197955,95.7444269 53.635797,96.2308626 C54.5597992,96.9605161 57.4038066,98.7507794 60.993906,98.9514701 C64.5840055,99.1521608 73.1228201,98.1307518 79.4092843,93.5679413 C85.6957485,89.0051307 90.5523023,79.3122155 91.0650029,77.3204678 C91.5777034,75.3287201 92.7636257,72.0661837 90.9597999,67.6509519 C89.1559741,63.2357202 85.3090081,60.4751938 82.1561305,58.3617993 C79.003253,56.2484048 72.5665378,54.0177108 68.9018291,53.9759774 C65.2371205,53.934244 56.3859579,54.3128684 50.4716703,58.0009792 C44.5573827,61.6890901 38.5469129,70.5698301 37.2942064,74.7105439 C36.4590688,77.4710198 35.9035843,80.2080459 35.6277531,82.9216221 Z" id="路径-2" fill="url(#linearGradient-3)" style="mix-blend-mode: multiply;" transform="translate(63.770803, 76.474095) rotate(103.000000) translate(-63.770803, -76.474095) "></path>
            <path d="M16.2856082,79.5956693 C16.2162736,81.3881439 16.6665736,82.72958 17.6365082,83.6199775 C19.09141,84.9555739 20.9165014,84.9915207 21.5513158,85.004024 C22.1861302,85.0165272 25.6744837,84.9314758 27.9991295,86.1304448 C29.5488934,86.9297575 30.8103055,87.8515222 31.7833659,88.8957391 C33.3570944,90.8743331 34.4660545,92.1006106 35.1102464,92.5745718 C36.0765341,93.2855135 39.0469347,95.0353533 42.7795952,95.2626292 C46.5122557,95.4899051 55.3777768,94.5882154 61.8733277,90.2571769 C68.3688787,85.9261384 73.3360713,76.6447501 73.8524613,74.7329492 C74.3688512,72.8211483 75.5744009,69.6928591 73.6633497,65.4268815 C71.7522984,61.160904 67.7315695,58.4678306 64.4375101,56.4041005 C61.1434507,54.3403705 54.4357009,52.1325259 50.6268144,52.0575064 C46.817928,51.9824869 37.6224964,52.2626477 31.5065125,55.7554946 C25.3905285,59.2483415 19.2174299,67.7371898 17.9497204,71.7099222 C17.1045807,74.3584104 16.5498766,76.9869928 16.2856082,79.5956693 Z" id="路径-2" fill="url(#linearGradient-4)" style="mix-blend-mode: multiply;" transform="translate(45.491609, 73.671342) rotate(154.000000) translate(-45.491609, -73.671342) "></path>
            <path d="M7.0225893,65.5603169 C6.88031909,67.3569592 7.27643833,68.6817243 8.21094702,69.5346122 C9.61271004,70.8139439 11.4378015,70.7779971 12.0726159,70.7654938 C12.7074303,70.7529906 16.2020354,70.5304034 18.479794,71.6387239 C19.9982998,72.3776042 21.2232441,73.2503979 22.154627,74.2571051 C23.6491682,76.1752667 24.7091573,77.3588248 25.3345943,77.8077795 C26.2727498,78.4812114 29.1743825,80.1153962 32.9007913,80.1957589 C36.6272002,80.2761217 45.5364827,79.0243411 52.2133307,74.4338602 C58.8901788,69.8433794 64.2387204,60.3588132 64.8332557,58.4251316 C65.4277909,56.49145 66.7614989,53.3131479 65.0223673,49.119064 C63.2832357,44.9249801 59.3687844,42.3881973 56.1559961,40.4526256 C52.9432078,38.5170538 46.3198549,36.5717774 42.5109684,36.6467968 C38.702082,36.7218163 29.4878955,37.3645713 23.2249984,41.1012315 C16.9621014,44.8378917 10.4389118,53.5768049 9.00866004,57.6026761 C8.05515888,60.2865902 7.3931353,62.9391372 7.0225893,65.5603169 Z" id="路径-2" fill="url(#linearGradient-5)" style="mix-blend-mode: multiply;" transform="translate(36.439173, 58.422018) rotate(206.000000) translate(-36.439173, -58.422018) "></path>
            <path d="M15.0674826,49.2210569 C14.9453981,51.0868611 15.3375175,52.4673888 16.2438409,53.3626402 C17.6033261,54.7055172 19.3593323,54.6855199 19.9701171,54.6785643 C20.5809019,54.6716088 23.9419571,54.4735264 26.1430102,55.6470128 C27.6103789,56.4293371 28.7963556,57.3480382 29.7009401,58.4031162 C31.1549774,60.4107786 32.18478,61.6508721 32.7903481,62.1233966 C33.6987003,62.8321834 36.5044521,64.5581077 40.0910737,64.6770705 C43.6776954,64.7960332 52.2408545,63.5798683 58.6281744,58.8727297 C65.0154944,54.1655912 70.0841931,44.359648 70.6403659,42.355728 C71.1965387,40.351808 72.4537556,37.0614493 70.7455689,32.6862121 C69.0373822,28.3109749 65.2495385,25.6373932 62.1418721,23.5952932 C59.0342057,21.5531933 52.6444406,19.4685662 48.979732,19.5102996 C45.3150233,19.552033 36.4534274,20.1323689 30.4574119,23.9561133 C24.4613963,27.7798578 18.2561706,36.7997091 16.9130418,40.9699842 C16.0176225,43.7501675 15.4024361,46.5005251 15.0674826,49.2210569 Z" id="路径-2" fill="url(#linearGradient-6)" style="mix-blend-mode: multiply;" transform="translate(43.327670, 42.097261) rotate(257.000000) translate(-43.327670, -42.097261) "></path>
            <path d="M32.5335276,42.9631204 C32.4751702,44.7932058 32.923295,46.1649661 33.8779022,47.0784013 C35.309813,48.448554 37.0973354,48.4931744 37.7190823,48.5086945 C38.3408292,48.5242146 41.7565571,48.4524891 44.0394898,49.6868959 C45.561445,50.5098337 46.8016662,51.4565633 47.7601534,52.5270847 C49.3118555,54.5543499 50.4044,55.8113718 51.037787,56.2981504 C51.9878675,57.0283184 54.9061272,58.8280469 58.5627703,59.0763138 C62.2194134,59.3245807 70.8967098,58.4422591 77.234813,54.0477812 C83.5729163,49.6533033 88.387928,40.1971475 88.8834562,38.2471504 C89.3789843,36.2971533 90.5429375,33.1079269 88.6487144,28.7434367 C86.7544912,24.3789465 82.8026126,21.6114807 79.5657193,19.4898198 C76.328826,17.3681589 69.7481032,15.0845342 66.0176218,14.9914135 C62.2871403,14.8982928 53.2834504,15.1445096 47.3125988,18.6847136 C41.3417472,22.2249176 35.3415598,30.8665423 34.1212284,34.9178026 C33.3076742,37.6186429 32.7784406,40.3004155 32.5335276,42.9631204 Z" id="路径-2" fill="url(#linearGradient-7)" style="mix-blend-mode: multiply;" transform="translate(61.110889, 37.045543) rotate(309.000000) translate(-61.110889, -37.045543) "></path>
            <path d="M46.0162346,53.9715113 C45.9080039,55.7498999 46.3409266,57.0709885 47.3150024,57.9347772 C48.7761162,59.2304603 50.643095,59.2304603 51.2924789,59.2304603 C51.9418628,59.2304603 55.5134743,59.078027 57.867491,60.2212768 C59.4368355,60.9834433 60.7085456,61.8726376 61.6826215,62.8888596 C63.2519659,64.8196815 64.3613301,66.0137424 65.010714,66.4710423 C65.9847899,67.1569922 68.9881905,68.8337585 72.803321,68.9861918 C76.6184515,69.1386251 85.7098262,68.071592 92.4471843,63.6510262 C99.1845424,59.2304603 104.460787,49.9320288 105.028998,48.0266125 C105.597209,46.1211962 106.895976,42.9963134 105.028998,38.8043976 C103.162019,34.6124817 99.1033694,32.0211155 95.7752769,30.0394826 C92.4471843,28.0578496 85.6286533,26 81.7323498,26 C77.8360463,26 68.4199796,26.4572999 62.0884864,30.0394826 C55.7569933,33.6216652 49.2631542,42.1579303 47.8832133,46.1211962 C46.9632528,48.7633734 46.3409266,51.3801452 46.0162346,53.9715113 Z" id="路径-2" fill="url(#linearGradient-8)" style="mix-blend-mode: multiply;"></path>
        </g>
    </g>
</svg>