<?xml version="1.0" encoding="UTF-8"?>
<svg width="1920px" height="1080px" viewBox="0 0 1920 1080" version="1.1" xmlns="http://www.w3.org/2000/svg" xmlns:xlink="http://www.w3.org/1999/xlink">
    <!-- Generator: Sketch 55.2 (78181) - https://sketchapp.com -->
    <title>A4</title>
    <desc>Created with Sketch.</desc>
    <defs>
        <linearGradient x1="50%" y1="-2.48949813e-15%" x2="50%" y2="100%" id="linearGradient-1">
            <stop stop-color="#595959" offset="0%"></stop>
            <stop stop-color="#2D2D2D" offset="100%"></stop>
        </linearGradient>
        <linearGradient x1="50%" y1="0%" x2="50%" y2="100%" id="linearGradient-2">
            <stop stop-color="#3133FE" offset="0%"></stop>
            <stop stop-color="#FEAFFF" offset="100%"></stop>
        </linearGradient>
        <linearGradient x1="50%" y1="0%" x2="50%" y2="100%" id="linearGradient-3">
            <stop stop-color="#DF1BFF" offset="0%"></stop>
            <stop stop-color="#FEAFFF" offset="100%"></stop>
        </linearGradient>
        <linearGradient x1="50%" y1="0%" x2="50%" y2="100%" id="linearGradient-4">
            <stop stop-color="#FF1C00" offset="0%"></stop>
            <stop stop-color="#FEAFFF" offset="100%"></stop>
        </linearGradient>
        <linearGradient x1="50%" y1="0%" x2="50%" y2="100%" id="linearGradient-5">
            <stop stop-color="#FFB500" offset="0%"></stop>
            <stop stop-color="#FEAFFF" offset="100%"></stop>
        </linearGradient>
        <linearGradient x1="50%" y1="0%" x2="50%" y2="100%" id="linearGradient-6">
            <stop stop-color="#EDFF15" offset="0%"></stop>
            <stop stop-color="#FEAFFF" offset="100%"></stop>
        </linearGradient>
        <linearGradient x1="50%" y1="0%" x2="50%" y2="100%" id="linearGradient-7">
            <stop stop-color="#4AFF89" offset="0%"></stop>
            <stop stop-color="#FEAFFF" offset="100%"></stop>
        </linearGradient>
        <linearGradient x1="50%" y1="0%" x2="50%" y2="100%" id="linearGradient-8">
            <stop stop-color="#4AFFFF" offset="0%"></stop>
            <stop stop-color="#FEAFFF" offset="100%"></stop>
        </linearGradient>
    </defs>
    <g id="A4" stroke="none" stroke-width="1" fill="none" fill-rule="evenodd">
        <g id="编组" transform="translate(104.000000, 88.000000)">
            <rect id="矩形" fill="#FFFFFF" x="0" y="34" width="94" height="51"></rect>
            <rect id="矩形" fill="#FFFFFF" x="0" y="0" width="94" height="80" rx="27"></rect>
            <path d="M47,85 C78.753915,85 94.417759,97 93.9915319,121 L0.00846808702,121 C-0.41775896,97 15.246085,85 47,85 Z" id="三角形" fill="url(#linearGradient-1)" transform="translate(47.000000, 103.000000) scale(1, -1) translate(-47.000000, -103.000000) "></path>
            <path d="M30,96 L34.4094686,96 L34.4094686,96.9803922 L31.0017628,96.9803922 L31.0017628,98.9215686 L34.2039788,98.9215686 L34.2039788,99.9019608 L31.0017628,99.9019608 L31.0017628,102.019608 L34.5550239,102.019608 L34.5550239,103 L30,103 L30,96 Z M34.9403173,96 L36.1475699,96 L37.8599849,99.1470588 L39.5638378,96 L40.7710904,96 L38.3565852,100.215686 L38.3565852,103 L37.3548225,103 L37.3548225,100.215686 L34.9403173,96 Z M41.413246,96 L45.8227147,96 L45.8227147,96.9803922 L42.4150088,96.9803922 L42.4150088,98.9215686 L45.6172249,98.9215686 L45.6172249,99.9019608 L42.4150088,99.9019608 L42.4150088,102.019608 L45.96827,102.019608 L45.96827,103 L41.413246,103 L41.413246,96 Z M46.9100982,96 L47.9032989,96 L47.9032989,102.019608 L51.2082599,102.019608 L51.2082599,103 L46.9100982,103 L46.9100982,96 Z M51.9788466,96 L52.9806094,96 L52.9806094,103 L51.9788466,103 L51.9788466,96 Z M53.7083858,96 L58.7171997,96 L58.7171997,96.9803922 L56.7136741,96.9803922 L56.7136741,103 L55.7119114,103 L55.7119114,96.9803922 L53.7083858,96.9803922 L53.7083858,96 Z M59.4449761,96 L63.8544447,96 L63.8544447,96.9803922 L60.4467389,96.9803922 L60.4467389,98.9215686 L63.6489549,98.9215686 L63.6489549,99.9019608 L60.4467389,99.9019608 L60.4467389,102.019608 L64,102.019608 L64,103 L59.4449761,103 L59.4449761,96 Z" id="EYELITE" fill="#FFFFFF" fill-rule="nonzero"></path>
        </g>
        <g id="火烈鸟羽翼-彩" transform="translate(116.000000, 96.000000)" opacity="0.808082217">
            <path d="M30.9124501,46.1449205 C30.8216466,47.3175811 31.0688095,48.1820689 31.6539387,48.7383839 C32.5316326,49.5728564 33.6759093,49.5487374 34.0739186,49.5403482 C34.4719279,49.531959 36.6630763,49.3854244 38.0901303,50.1079678 C39.0414996,50.5896635 39.8087002,51.1588657 40.3917321,51.8155747 C41.327022,53.066957 41.9905257,53.8390445 42.3822431,54.131837 C42.9698191,54.5710258 44.7875418,55.6365587 47.1237491,55.687666 C49.4599565,55.7387732 55.0467678,54.9185667 59.2369361,51.920105 C63.4271045,48.9216432 66.7888657,42.7294519 67.1633401,41.4671874 C67.5378146,40.2049228 68.3768279,38.1300691 67.2902271,35.3933554 C66.2036262,32.6566417 63.7517223,31.0023777 61.7391896,29.7402515 C59.7266569,28.4781254 55.5758728,27.2108943 53.187817,27.2612296 C50.7997612,27.3115649 45.0223345,27.7343904 41.0924571,30.1754423 C37.1625798,32.6164943 33.0650377,38.3224458 32.164738,40.9505148 C31.5645382,42.7025607 31.1471089,44.4340293 30.9124501,46.1449205 Z" id="路径-2" fill="url(#linearGradient-2)" style="mix-blend-mode: multiply;" transform="translate(49.360407, 41.474830) rotate(51.000000) translate(-49.360407, -41.474830) "></path>
            <path d="M22.5626454,53.2530325 C22.508264,54.4409508 22.7777994,55.3263763 23.3712515,55.9093092 C24.2614296,56.7837085 25.3886707,56.7945178 25.7807545,56.7982776 C26.1728384,56.8020373 28.3283596,56.7208407 29.7567131,57.4985344 C30.7089488,58.0169968 31.4822626,58.6186321 32.0766547,59.3034403 C33.0360965,60.6029466 33.7132693,61.4073925 34.1081729,61.7167781 C34.7005284,62.1808565 36.5242556,63.3188734 38.8286881,63.4428372 C41.1331207,63.566801 46.615715,62.9063106 50.6563268,59.9909349 C54.6969385,57.0755593 57.8252836,50.8917152 58.1566077,49.621564 C58.4879319,48.3514128 59.2528309,46.2704891 58.0997415,43.4581096 C56.9466521,40.6457301 54.4801491,38.8903519 52.4585002,37.5467046 C50.4368513,36.2030572 46.3072817,34.7882636 43.9547786,34.765705 C41.6022755,34.7431465 35.9198794,34.994256 32.1191504,37.3516675 C28.3184214,39.7090789 24.4502195,45.3764971 23.6414797,48.0172649 C23.1023198,49.7777767 22.7427084,51.5230326 22.5626454,53.2530325 Z" id="路径-2" fill="url(#linearGradient-3)" style="mix-blend-mode: multiply;" transform="translate(40.634566, 49.110646) rotate(103.000000) translate(-40.634566, -49.110646) "></path>
            <path d="M10.342856,51.1724343 C10.2950562,52.3219684 10.5797481,53.1812505 11.1969318,53.7502804 C12.1227073,54.6038254 13.2872916,54.623256 13.6923644,54.6300145 C14.0974372,54.636773 16.3236479,54.5753166 17.804709,55.3395265 C18.792083,55.8489997 19.5952066,56.4375653 20.21408,57.1052234 C21.2144077,58.3708449 21.9196425,59.154977 22.3297841,59.4576196 C22.9449966,59.9115836 24.8370441,61.02775 27.2185364,61.1660842 C29.6000286,61.3044183 35.2592204,60.7086408 39.4128515,57.9185468 C43.5664827,55.1284528 46.7546323,49.1670548 47.0879507,47.9401179 C47.4212691,46.713181 48.1967775,44.7048231 46.9857286,41.9731212 C45.7746798,39.2414194 43.2142513,37.5225021 41.1162881,36.2057003 C39.018325,34.8888985 34.7422508,33.4864558 32.3118141,33.4459049 C29.8813773,33.405354 24.0128907,33.6032401 20.1031371,35.8551039 C16.1933835,38.1069677 12.2372744,43.5625533 11.4204248,46.1125207 C10.8758585,47.8124989 10.5166689,49.4991368 10.342856,51.1724343 Z" id="路径-2" fill="url(#linearGradient-4)" style="mix-blend-mode: multiply;" transform="translate(28.989331, 47.313035) rotate(154.000000) translate(-28.989331, -47.313035) "></path>
            <path d="M4.45651113,42.0306859 C4.36928675,43.1824729 4.6246919,44.0327436 5.22272656,44.5814981 C6.11977856,45.4046299 7.28436284,45.3851993 7.68943563,45.3784408 C8.09450842,45.3716823 10.3240984,45.2358826 11.7798151,45.9510934 C12.7502929,46.4279006 13.5337043,46.9899955 14.1300494,47.6373781 C15.0875734,48.8703336 15.7663374,49.6313742 16.1663413,49.9204999 C16.7663472,50.3541884 18.621223,51.4078389 20.9993361,51.4667608 C23.3774491,51.5256827 29.0602955,50.7406677 33.3119247,47.8103351 C37.563554,44.8800025 40.9578373,38.8087791 41.3333962,37.5700149 C41.7089552,36.3312507 42.553738,34.2958588 41.4356183,31.6030182 C40.3174986,28.9101777 37.8145172,27.2757414 35.7604843,26.0282141 C33.7064513,24.7806868 29.4759969,23.5201723 27.0455601,23.5607232 C24.6151234,23.6012741 18.736499,23.9951562 14.7473332,26.3788105 C10.7581674,28.7624648 6.61282073,34.3532201 5.7081109,36.931911 C5.10497101,38.6510383 4.68777109,40.3506299 4.45651113,42.0306859 Z" id="路径-2" fill="url(#linearGradient-5)" style="mix-blend-mode: multiply;" transform="translate(23.216810, 37.514782) rotate(206.000000) translate(-23.216810, -37.514782) "></path>
            <path d="M9.47304865,31.5410757 C9.3967354,32.7302472 9.64997851,33.6106598 10.232778,34.1823135 C11.1069772,35.0397939 12.2342182,35.0289846 12.6263021,35.0252248 C13.0183859,35.0214651 15.175787,34.8989112 16.5900415,35.6493467 C17.5328778,36.149637 18.2952257,36.7365466 18.8770852,37.4100755 C19.8127153,38.6914097 20.4751623,39.4830098 20.8644264,39.7848759 C21.4483224,40.237675 23.2513709,41.3409142 25.5539236,41.4207009 C27.8564763,41.5004877 33.3522298,40.7347242 37.4473579,37.7413337 C41.5424861,34.7479432 44.7855036,28.5030031 45.1403262,27.2262724 C45.4951488,25.9495416 46.2985852,23.8535789 45.1971924,21.062818 C44.0957996,18.2720571 41.6612545,16.5636758 39.664044,15.2585659 C37.6668334,13.953456 33.5626422,12.6176171 31.210139,12.6398938 C28.8576359,12.6627341 23.1696003,13.0228764 19.3246942,15.453603 C15.4797881,17.8843296 11.5063131,23.6269428 10.6486965,26.2836895 C10.0769521,28.054854 9.68506952,29.8073161 9.47304865,31.5410757 Z" id="路径-2" fill="url(#linearGradient-6)" style="mix-blend-mode: multiply;" transform="translate(27.608286, 27.033052) rotate(257.000000) translate(-27.608286, -27.033052) "></path>
            <path d="M20.626809,27.6470836 C20.5849427,28.8169477 20.8684589,29.6926211 21.4773575,30.2741038 C22.3907056,31.1463279 23.5349823,31.1704469 23.9329916,31.1788361 C24.3310009,31.1872253 26.5179547,31.1329721 27.9764682,31.9163374 C28.9488106,32.4385809 29.7404797,33.040641 30.3514757,33.7225176 C31.3398974,35.0144479 32.0362588,35.8151985 32.44056,36.1247694 C33.0470119,36.5891259 34.9108752,37.7322591 37.2512772,37.8819397 C39.5916791,38.0316203 45.1491282,37.4463119 49.2176528,34.6219265 C53.2861775,31.7975411 56.3920674,25.7416746 56.7141093,24.4940912 C57.0361511,23.2465078 57.7891749,21.2052109 56.5872223,18.4202592 C55.3852697,15.6353075 52.8620574,13.8761783 50.7949947,12.5280626 C48.7279321,11.1799469 44.5205208,9.73654222 42.132465,9.6862069 C39.7444092,9.63587158 33.9795663,9.81540964 30.1482623,12.0928718 C26.3169583,14.3703339 22.4543144,19.9085011 21.6630745,22.5009158 C21.1355813,24.2291923 20.7901595,25.9445816 20.626809,27.6470836 Z" id="路径-2" fill="url(#linearGradient-7)" style="mix-blend-mode: multiply;" transform="translate(38.933470, 23.791456) rotate(309.000000) translate(-38.933470, -23.791456) "></path>
            <path d="M29.0102819,35.2140074 C28.9417358,36.3720278 29.2159202,37.2322716 29.8328349,37.7947387 C30.7582069,38.6384393 31.9406268,38.6384393 32.3519033,38.6384393 C32.7631798,38.6384393 35.0252004,38.5391804 36.5160776,39.2836221 C37.5099958,39.7799166 38.3154122,40.3589268 38.9323269,41.0206528 C39.9262451,42.2779321 40.6288424,43.0554601 41.0401189,43.3532368 C41.6570336,43.7999019 43.5591873,44.8917497 45.9754366,44.9910086 C48.3916859,45.0902675 54.1495566,44.3954552 58.4165501,41.5169473 C62.6835435,38.6384393 66.0251649,32.5836466 66.3850318,31.3429104 C66.7448988,30.1021742 67.5674517,28.0673669 66.3850318,25.3377472 C65.202612,22.6081276 62.632134,20.9207264 60.524342,19.6303607 C58.4165501,18.3399951 54.0981471,17 51.6304882,17 C49.1628293,17 43.1993204,17.2977767 39.1893747,19.6303607 C35.1794291,21.9629448 31.0666643,27.521443 30.1927018,30.1021742 C29.6100601,31.8226618 29.2159202,33.5266062 29.0102819,35.2140074 Z" id="路径-2" fill="url(#linearGradient-8)" style="mix-blend-mode: multiply;"></path>
        </g>
    </g>
</svg>